<?xml version="1.0" encoding="UTF-8" standalone="no"?>
<!-- Created with Inkscape (http://www.inkscape.org/) -->

<svg
   xmlns:dc="http://purl.org/dc/elements/1.1/"
   xmlns:cc="http://creativecommons.org/ns#"
   xmlns:rdf="http://www.w3.org/1999/02/22-rdf-syntax-ns#"
   xmlns:svg="http://www.w3.org/2000/svg"
   xmlns="http://www.w3.org/2000/svg"
   version="1.1"
   width="88"
   height="88"
   id="svg2">
  <defs
     id="defs4" />
  <metadata
     id="metadata7">
    <rdf:RDF>
      <cc:Work
         rdf:about="">
        <dc:format>image/svg+xml</dc:format>
        <dc:type
           rdf:resource="http://purl.org/dc/dcmitype/StillImage" />
        <dc:title></dc:title>
      </cc:Work>
    </rdf:RDF>
  </metadata>
  <g
     id="g3075">
    <path
       d="M 41.109375,83.898047 C 26.396357,83.022322 12.802712,73.181503 7.2701235,59.540493 1.2527793,45.826924 3.7674759,28.788152 13.942102,17.697799 23.153181,6.9021962 38.366531,1.7252746 52.221322,4.9478846 67.547938,8.0696227 80.533987,20.803171 83.2378,36.31848 c 2.996156,14.30067 -2.855478,29.810309 -14.285102,38.828064 -7.73358,6.299728 -17.879259,9.589814 -27.843323,8.751503 z m -12.65763,-4.90028 c -2.236207,-0.767117 -2.744022,-4.34587 -0.295767,-4.427307 -1.127719,-1.497092 3.425575,-1.231495 2.812798,-3.794077 3.229252,-0.183729 4.284696,-2.822871 4.735091,-5.453406 4.350734,-3.071512 -3.812746,-5.029397 -6.074162,-6.09076 -3.322725,0.78456 0.06924,-3.966861 -3.655274,-4.475393 -3.107115,-0.539316 -3.435696,-4.431742 -7.159378,-3.725574 -1.188688,-1.047962 -1.879206,-1.675924 -3.513721,0.0072 -1.171396,3.855927 -0.98023,7.921965 1.529131,11.36163 2.477864,3.540413 3.933709,7.625464 5.686451,11.521821 1.193101,1.960386 4.363486,5.455846 5.934831,5.075889 z m 37.953643,-7.718222 c 4.150115,-1.454233 6.307288,-5.459305 8.051227,-9.200116 2.863847,-3.351982 1.579929,-8.008693 2.85248,-11.970346 -0.01638,-2.196105 2.230637,-5.813825 -0.319142,-5.248861 -1.692585,-1.799296 -5.055038,-5.290342 -4.842772,-6.906458 2.548666,1.513987 4.830039,8.631972 6.580637,2.420165 1.207796,-1.680629 -0.04608,-6.584713 -1.793929,-3.960273 -1.756102,-0.800848 -1.943006,-3.42098 0.171906,-1.239121 1.748318,-1.817658 3.570734,-1.519901 4.264238,1.252148 C 80.317416,28.879923 75.365536,22.510138 70.13905,17.235979 65.709552,12.864392 60.119656,9.6497119 54.103259,8.081832 c -4.671734,1.0162937 4.342907,1.8513321 3.195173,3.808833 2.57725,1.049313 2.428969,2.370883 2.369202,4.507072 -2.715154,-2.268258 2.918724,3.565949 -0.941073,1.74855 -2.215441,-0.856883 2.547904,-0.861121 -0.882297,-1.715169 -2.805771,-2.108957 -5.145076,0.685032 -3.669101,3.449141 -1.477712,2.087465 -0.486296,5.290119 2.028092,4.245325 2.695605,3.17022 1.807529,-2.466098 0.309308,-3.438645 -1.216481,-2.831633 0.814079,-1.828846 1.0358,0.07278 1.025884,2.031468 3.851802,-0.943108 2.020805,1.796647 2.034061,2.373452 -2.905254,6.065278 -3.698854,2.068639 1.093154,2.614395 -1.129644,4.227284 -3.117978,6.031551 -2.160681,0.666569 3.98008,3.010031 -0.124998,3.343449 -4.508511,-0.437291 -1.144288,7.032315 1.930507,3.088617 1.094256,-3.965168 5.207384,-5.995523 7.933278,-2.080502 2.643815,-0.785764 -3.550823,-2.818661 -2.066945,-3.58997 2.335309,-0.158702 4.309526,3.915612 5.594874,3.037644 -1.635611,-2.413856 0.916791,-2.220092 1.819469,-0.321027 1.868943,-1.03203 3.923938,-0.939437 2.976868,1.847332 -1.381618,2.210681 -5.077529,0.858869 -5.407218,2.969949 -2.721197,0.683353 -3.994522,-1.895725 -5.678098,-2.223919 -3.188857,1.210533 -7.886013,1.147687 -8.793179,4.997214 -2.697751,2.503502 -3.601889,5.993426 -3.35549,9.571985 1.48824,2.978519 5.056649,6.182469 8.548524,4.322459 2.364543,-1.327077 8.554353,-2.416677 6.991545,1.733185 4.226803,3.159307 0.505858,7.518227 1.830084,11.616789 0.717711,0.792567 -0.346791,3.59434 1.453831,2.309789 z m 0.481485,-39.54517 c -2.775262,-3.84219 3.197987,-5.050035 3.194087,-1.537312 -1.330328,0.03661 -2.515616,1.07627 -3.194087,1.537312 z m 9.604772,31.290323 c 0.683199,-1.231095 3.22358,-7.770319 0.902113,-3.620915 -0.510753,0.2345 -2.804665,5.823013 -0.902113,3.620915 z M 14.625,50.244503 c -0.827995,-3.08482 -2.831021,-5.517476 -1.930451,-8.508894 -3.918587,3.386885 -2.8371913,-6.936383 0.239792,-5.157825 2.944967,-0.584037 2.593507,6.778428 3.675113,1.960506 1.565453,-2.615702 3.873211,-4.802958 6.768228,-6.362478 1.056797,-0.697227 2.525313,-0.896863 1.428625,0.371161 3.370746,0.311002 -0.505915,-5.06645 3.703154,-3.847414 3.80426,-0.312877 -0.228983,-2.533552 1.237853,-5.476996 -2.517857,1.679442 0.148396,-3.962742 -2.883532,-1.76042 -1.189353,1.710998 -5.185395,7.609947 -3.993566,2.466668 -2.24827,-4.922532 4.257073,-5.171288 6.908038,-6.720831 1.071036,-1.949274 -2.826497,1.977995 -1.090748,-0.789815 0.556782,-1.042868 3.667948,-3.081937 0.783034,-1.55083 -1.195447,1.751968 -2.983232,1.835725 -2.951245,0.05984 -1.94595,-0.01444 1.917287,-2.287107 0.82775,-3.281937 1.388112,-0.834791 3.801565,-2.7764854 0.739195,-1.431198 -5.05088,2.082375 -8.722908,6.378944 -12.314952,10.321222 -3.04564,3.327995 -5.9296451,7.354231 -6.2904852,11.996108 -0.2135513,2.45916 -0.8768502,-0.181309 -1.2140729,2.551193 0.2518349,3.830842 0.2992478,7.763378 3.3217811,10.646261 0.997937,1.213156 0.954123,4.701315 3.036489,4.515677 z M 52.741495,29.48982 c 2.721947,-1.371814 -1.831744,-3.184073 -2.358766,-4.591244 -0.107769,1.90782 1.816804,3.347581 1.162886,4.996488 l 0.418349,-0.129392 0.777532,-0.275852 -10e-7,0 z M 37.19502,23.23162 c 1.334264,-2.838027 5.510164,-3.28362 6.239841,-5.498589 -0.320152,-1.475849 1.78819,-6.899671 -1.669183,-6.282823 -2.181761,0.231927 -7.188052,1.516222 -4.714116,3.998798 0.05855,2.710543 -3.453445,4.827519 -1.645393,7.924409 0.414886,0.93033 1.391274,0.721504 1.788851,-0.141795 z"
       id="path3077"
       style="fill:#4d4d4d" />
  </g>
</svg>
