<?xml version="1.0" encoding="UTF-8" standalone="no"?>
<!-- Created with Inkscape (http://www.inkscape.org/) -->

<svg
   xmlns:dc="http://purl.org/dc/elements/1.1/"
   xmlns:cc="http://creativecommons.org/ns#"
   xmlns:rdf="http://www.w3.org/1999/02/22-rdf-syntax-ns#"
   xmlns:svg="http://www.w3.org/2000/svg"
   xmlns="http://www.w3.org/2000/svg"
   version="1.1"
   width="96"
   height="64"
   id="svg2">
  <defs
     id="defs4" />
  <metadata
     id="metadata7">
    <rdf:RDF>
      <cc:Work
         rdf:about="">
        <dc:format>image/svg+xml</dc:format>
        <dc:type
           rdf:resource="http://purl.org/dc/dcmitype/StillImage" />
        <dc:title></dc:title>
      </cc:Work>
    </rdf:RDF>
  </metadata>
  <path
     d="m 54,6 -8,10 6,16 8,8 4,-2 L 56,30 50,18 58,8 54,6 z M 43,8 c -1.656854,0 -3,0.895431 -3,2 0,1.104569 1.343146,2 3,2 1.656854,0 3,-0.895431 3,-2 C 46,8.895431 44.656854,8 43,8 z M 28,12 4,24 48,46 52,44 32,20 28,12 z m 10.0625,0.5 c -1.656854,0 -3,0.895431 -3,2 0,1.104569 1.343146,2 3,2 1.656854,0 3,-0.895431 3,-2 0,-1.104569 -1.343146,-2 -3,-2 z m 25.90625,2.5625 c -1.656854,0 -3,0.895431 -3,2 0,1.104569 1.343146,2 3,2 1.656854,0 3,-0.895431 3,-2 0,-1.104569 -1.343146,-2 -3,-2 z M 80,18 78,30 92,24 88,22 80,18 z m -12.5625,6.25 c -1.656854,0 -3,0.895431 -3,2 0,1.104569 1.343146,2 3,2 1.656854,0 3,-0.895431 3,-2 0,-1.104569 -1.343146,-2 -3,-2 z m -0.71875,5.03125 c -1.656854,0 -3,0.895431 -3,2 0,1.104569 1.343146,2 3,2 1.656854,0 3,-0.895431 3,-2 0,-1.104569 -1.343146,-2 -3,-2 z M 12,34 4,38 48,60 92,38 84,34 48,52 12,34 z"
     id="path3879-6-0"
     style="fill:#000000;fill-opacity:1;stroke:none" />
</svg>
