<?xml version="1.0" encoding="UTF-8" standalone="no"?>
<!-- Created with Inkscape (http://www.inkscape.org/) -->

<svg
   xmlns:dc="http://purl.org/dc/elements/1.1/"
   xmlns:cc="http://creativecommons.org/ns#"
   xmlns:rdf="http://www.w3.org/1999/02/22-rdf-syntax-ns#"
   xmlns:svg="http://www.w3.org/2000/svg"
   xmlns="http://www.w3.org/2000/svg"
   version="1.1"
   width="88"
   height="58"
   id="svg2">
  <defs
     id="defs4" />
  <metadata
     id="metadata7">
    <rdf:RDF>
      <cc:Work
         rdf:about="">
        <dc:format>image/svg+xml</dc:format>
        <dc:type
           rdf:resource="http://purl.org/dc/dcmitype/StillImage" />
        <dc:title></dc:title>
      </cc:Work>
    </rdf:RDF>
  </metadata>
  <path
     d="M 44,0 32,6 44,12 56,6 44,0 z M 30,7 14,15 26,21 42,13 30,7 z M 58,7 46,13 62,21 74,15 58,7 z M 44,14 28,22 44,30 60,22 44,14 z M 12,16 0,22 12,28 24,22 12,16 z m 64,0 -12,6 12,6 12,-6 -12,-6 z m -50,7 -12,6 16,8 12,-6 -16,-8 z m 36,0 -16,8 12,6 16,-8 -12,-6 z M 8,32 0,36 44,58 88,36 80,32 44,50 8,32 z m 36,0 -12,6 12,6 12,-6 -12,-6 z"
     id="path3879-6-0"
     style="fill:#000000;fill-opacity:1;stroke:none" />
</svg>
