<?xml version="1.0" encoding="UTF-8" standalone="no"?>
<!-- Created with Inkscape (http://www.inkscape.org/) -->

<svg
   xmlns:dc="http://purl.org/dc/elements/1.1/"
   xmlns:cc="http://creativecommons.org/ns#"
   xmlns:rdf="http://www.w3.org/1999/02/22-rdf-syntax-ns#"
   xmlns:svg="http://www.w3.org/2000/svg"
   xmlns="http://www.w3.org/2000/svg"
   version="1.1"
   width="100%"
   height="100%"
   viewBox="-2.25 0 88 88"
   id="Layer_1"
   xml:space="preserve"><defs
     id="defs48" /><metadata
     id="metadata44"><rdf:RDF><cc:Work><dc:format>image/svg+xml</dc:format><dc:type
           rdf:resource="http://purl.org/dc/dcmitype/StillImage" /><cc:license
           rdf:resource="http://creativecommons.org/licenses/publicdomain/" /><dc:publisher><cc:Agent
             rdf:about="http://openclipart.org/"><dc:title>Openclipart</dc:title></cc:Agent></dc:publisher><dc:title></dc:title></cc:Work><cc:License
         rdf:about="http://creativecommons.org/licenses/publicdomain/"><cc:permits
           rdf:resource="http://creativecommons.org/ns#Reproduction" /><cc:permits
           rdf:resource="http://creativecommons.org/ns#Distribution" /><cc:permits
           rdf:resource="http://creativecommons.org/ns#DerivativeWorks" /></cc:License></rdf:RDF></metadata><path
     d="m 3.96875,3.5625 0,2.28125 0,70.09375 0,1.53125 1.5,0.34375 26.5625,6.09375 L 32.4375,84 l 0.40625,-0.09375 23.125,-4.5 26.28125,3 2.15625,0.25 0,-2.15625 0,-70.09375 0,-1.625 -1.625,-0.25 L 56.21875,3.9375 55.875,3.875 l -0.34375,0.09375 -23.125,4.5 -26.1875,-4.53125 -2.25,-0.375 z m 51.96875,4.25 24.59375,4.21875 0,66.3125 L 56.125,75.53125 55.8125,75.5 l -0.28125,0.0625 -23.0625,4.5 -24.625,-5.65625 0,-66.25 24.28125,4.15625 0.375,0.0625 0.34375,-0.0625 23.09375,-4.5 z m -1.59375,4.125 -3.125,0.78125 -1.5625,35.78125 4.6875,6.875 0,-43.4375 z m 3.125,0 0,48 18.75,10.65625 0,-55.59375 -18.75,-3.0625 z m -45.3125,1.53125 0,42.65625 18.75,-39.625 -18.75,-3.03125 z m 35.9375,0 -14.0625,3.03125 0,44.1875 12.5,-13.71875 1.5625,-33.5 z m -17.1875,9.125 -18.75,39.625 0,9.15625 18.75,4.5625 0,-53.34375 z M 47.3125,51.5625 34.03125,65.28125 l 0,10.65625 20.3125,-4.5625 0,-9.15625 L 47.3125,51.5625 z M 57.46875,64.5 l 0,6.875 L 73.875,73.65625 57.46875,64.5 z"
     transform="translate(-2.25,0)"
     id="path3027"
     style="font-size:medium;font-style:normal;font-variant:normal;font-weight:normal;font-stretch:normal;text-indent:0;text-align:start;text-decoration:none;line-height:normal;letter-spacing:normal;word-spacing:normal;text-transform:none;direction:ltr;block-progression:tb;writing-mode:lr-tb;text-anchor:start;baseline-shift:baseline;color:#000000;fill:#000000;fill-opacity:1;stroke:none;stroke-width:3.8572135;marker:none;visibility:visible;display:inline;overflow:visible;enable-background:accumulate;font-family:Sans;-inkscape-font-specification:Sans" /></svg>