<?xml version="1.0" encoding="UTF-8" standalone="no"?>
<!-- Created with Inkscape (http://www.inkscape.org/) -->

<svg
   xmlns:dc="http://purl.org/dc/elements/1.1/"
   xmlns:cc="http://creativecommons.org/ns#"
   xmlns:rdf="http://www.w3.org/1999/02/22-rdf-syntax-ns#"
   xmlns:svg="http://www.w3.org/2000/svg"
   xmlns="http://www.w3.org/2000/svg"
   version="1.1"
   width="86"
   height="86"
   id="svg2">
  <defs
     id="defs4" />
  <metadata
     id="metadata7">
    <rdf:RDF>
      <cc:Work
         rdf:about="">
        <dc:format>image/svg+xml</dc:format>
        <dc:type
           rdf:resource="http://purl.org/dc/dcmitype/StillImage" />
        <dc:title></dc:title>
      </cc:Work>
    </rdf:RDF>
  </metadata>
  <path
     d="M 20.09375,4 C 20.037413,4 20,4.0374125 20,4.09375 l 0,13.8125 C 20,17.962587 20.037413,18 20.09375,18 l 13.8125,0 C 33.962587,18 34,17.962587 34,17.90625 L 34,4.09375 C 34,4.0374125 33.962587,4 33.90625,4 l -13.8125,0 z m 16,0 C 36.037413,4 36,4.0374125 36,4.09375 l 0,13.8125 C 36,17.962587 36.037413,18 36.09375,18 l 13.8125,0 C 49.962587,18 50,17.962587 50,17.90625 L 50,4.09375 C 50,4.0374125 49.962587,4 49.90625,4 l -13.8125,0 z m 32,0 C 68.037413,4 68,4.0374125 68,4.09375 l 0,13.8125 C 68,17.962587 68.037413,18 68.09375,18 l 13.8125,0 C 81.962587,18 82,17.962587 82,17.90625 L 82,4.09375 C 82,4.0374125 81.962587,4 81.90625,4 l -13.8125,0 z m -64,16 C 4.0374125,20 4,20.037413 4,20.09375 l 0,13.8125 C 4,33.962587 4.0374125,34 4.09375,34 l 13.8125,0 C 17.962587,34 18,33.962587 18,33.90625 l 0,-13.8125 C 18,20.037413 17.962587,20 17.90625,20 l -13.8125,0 z m 16,0 C 20.037413,20 20,20.037413 20,20.09375 l 0,13.8125 C 20,33.962587 20.037413,34 20.09375,34 l 13.8125,0 C 33.962587,34 34,33.962587 34,33.90625 l 0,-13.8125 C 34,20.037413 33.962587,20 33.90625,20 l -13.8125,0 z m 16,0 C 36.037413,20 36,20.037413 36,20.09375 l 0,13.8125 C 36,33.962587 36.037413,34 36.09375,34 l 13.8125,0 C 49.962587,34 50,33.962587 50,33.90625 l 0,-13.8125 C 50,20.037413 49.962587,20 49.90625,20 l -13.8125,0 z m 16,0 C 52.037413,20 52,20.037413 52,20.09375 l 0,13.8125 C 52,33.962587 52.037413,34 52.09375,34 l 13.8125,0 C 65.962587,34 66,33.962587 66,33.90625 l 0,-13.8125 C 66,20.037413 65.962587,20 65.90625,20 l -13.8125,0 z m -48,16 C 4.0374125,36 4,36.037413 4,36.09375 l 0,13.8125 C 4,49.962587 4.0374125,50 4.09375,50 l 13.8125,0 C 17.962587,50 18,49.962587 18,49.90625 l 0,-13.8125 C 18,36.037413 17.962587,36 17.90625,36 l -13.8125,0 z m 16,0 C 20.037413,36 20,36.037413 20,36.09375 l 0,13.8125 C 20,49.962587 20.037413,50 20.09375,50 l 13.8125,0 C 33.962587,50 34,49.962587 34,49.90625 l 0,-13.8125 C 34,36.037413 33.962587,36 33.90625,36 l -13.8125,0 z m 16,0 C 36.037413,36 36,36.037413 36,36.09375 l 0,13.8125 C 36,49.962587 36.037413,50 36.09375,50 l 13.8125,0 C 49.962587,50 50,49.962587 50,49.90625 l 0,-13.8125 C 50,36.037413 49.962587,36 49.90625,36 l -13.8125,0 z m 16,0 C 52.037413,36 52,36.037413 52,36.09375 l 0,13.8125 C 52,49.962587 52.037413,50 52.09375,50 l 13.8125,0 C 65.962587,50 66,49.962587 66,49.90625 l 0,-13.8125 C 66,36.037413 65.962587,36 65.90625,36 l -13.8125,0 z m -32,16 C 20.037413,52 20,52.037413 20,52.09375 l 0,13.8125 C 20,65.962587 20.037413,66 20.09375,66 l 13.8125,0 C 33.962587,66 34,65.962587 34,65.90625 l 0,-13.8125 C 34,52.037413 33.962587,52 33.90625,52 l -13.8125,0 z m 16,0 C 36.037413,52 36,52.037413 36,52.09375 l 0,13.8125 C 36,65.962587 36.037413,66 36.09375,66 l 13.8125,0 C 49.962587,66 50,65.962587 50,65.90625 l 0,-13.8125 C 50,52.037413 49.962587,52 49.90625,52 l -13.8125,0 z m 16,0 C 52.037413,52 52,52.037413 52,52.09375 l 0,13.8125 C 52,65.962587 52.037413,66 52.09375,66 l 13.8125,0 C 65.962587,66 66,65.962587 66,65.90625 l 0,-13.8125 C 66,52.037413 65.962587,52 65.90625,52 l -13.8125,0 z m 16,0 C 68.037413,52 68,52.037413 68,52.09375 l 0,13.8125 C 68,65.962587 68.037413,66 68.09375,66 l 13.8125,0 C 81.962587,66 82,65.962587 82,65.90625 l 0,-13.8125 C 82,52.037413 81.962587,52 81.90625,52 l -13.8125,0 z m -64,16 C 4.0374125,68 4,68.037413 4,68.09375 l 0,13.8125 C 4,81.962587 4.0374125,82 4.09375,82 l 13.8125,0 C 17.962587,82 18,81.962587 18,81.90625 l 0,-13.8125 C 18,68.037413 17.962587,68 17.90625,68 l -13.8125,0 z m 32,0 C 36.037413,68 36,68.037413 36,68.09375 l 0,13.8125 C 36,81.962587 36.037413,82 36.09375,82 l 13.8125,0 C 49.962587,82 50,81.962587 50,81.90625 l 0,-13.8125 C 50,68.037413 49.962587,68 49.90625,68 l -13.8125,0 z m 16,0 C 52.037413,68 52,68.037413 52,68.09375 l 0,13.8125 C 52,81.962587 52.037413,82 52.09375,82 l 13.8125,0 C 65.962587,82 66,81.962587 66,81.90625 l 0,-13.8125 C 66,68.037413 65.962587,68 65.90625,68 l -13.8125,0 z"
     id="rect2983"
     style="color:#000000;fill:#000000;fill-opacity:1;fill-rule:nonzero;stroke:none;stroke-width:5;marker:none;visibility:visible;display:inline;overflow:visible;enable-background:accumulate" />
</svg>
