<?xml version="1.0" encoding="UTF-8" standalone="no"?>
<!-- Created with Inkscape (http://www.inkscape.org/) -->

<svg
   xmlns:dc="http://purl.org/dc/elements/1.1/"
   xmlns:cc="http://creativecommons.org/ns#"
   xmlns:rdf="http://www.w3.org/1999/02/22-rdf-syntax-ns#"
   xmlns:svg="http://www.w3.org/2000/svg"
   xmlns="http://www.w3.org/2000/svg"
   version="1.1"
   width="831.66248"
   height="831.66248"
   id="svg2"
   xml:space="preserve"><metadata
     id="metadata8"><rdf:RDF><cc:Work
         rdf:about=""><dc:format>image/svg+xml</dc:format><dc:type
           rdf:resource="http://purl.org/dc/dcmitype/StillImage" /><dc:title></dc:title></cc:Work></rdf:RDF></metadata><defs
     id="defs6" /><g
     transform="matrix(1.25,0,0,-1.25,0,831.6625)"
     id="g10"><g
       transform="scale(0.1,0.1)"
       id="g12"><path
         d="M 6653.26,1108.88 C 6653.26,496.48 6156.8,0 5544.38,0 L 1108.87,0 C 496.426,0 0,496.48 0,1108.88 l 0,4435.49 c 0,612.41 496.426,1108.89 1108.87,1108.89 l 4435.51,0 c 612.42,0 1108.88,-496.48 1108.88,-1108.89 l 0,-4435.49"
         id="path14"
         style="fill:#231f20;fill-opacity:1;fill-rule:nonzero;stroke:none" /><path
         d="m 4092.17,1609.02 c -49.1,38.6 -80.78,99.3 -80.78,169.03 l -0.59,1012.01 c 0,628.49 -287.97,1007.93 -1028.98,985.33 -336.33,-10.27 -647.72,-236.68 -647.72,-236.68 -37.77,-23.05 -68.75,0 -68.75,0 0,0 -311.15,226.41 -647.44,236.68 -741.289,22.6 -1028.906,-356.84 -1028.906,-985.33 l -0.391,-1091.37 c 0,-106.74 30.528,-196.7 157.969,-196.7 l 751.098,0 c 28.63,0 51.77,23.44 51.77,51.91 0,32.27 -27.26,45.18 -40.06,55.12 -48.96,38.6 -80.68,100.45 -80.68,169.96 l -0.29,995.24 c 1.83,106.17 115.37,184.88 235.88,185.35 120.04,-0.47 233.9,-79.18 235.82,-185.35 l -1.41,-1075.53 c 0,-106.74 30.68,-196.7 158.01,-196.7 l 712.99,0 c 28.59,0 51.77,23.44 51.77,51.91 0,32.27 -27.22,45.18 -40.05,55.12 -49.01,38.6 -80.75,100.45 -80.75,169.96 l -0.7,996.64 c 1.8,106.18 115.35,183.48 235.55,183.95 120.41,-0.47 233.71,-77.77 235.72,-183.95 l 0,-1076.93 c 0,-106.74 30.61,-196.7 157.95,-196.7 l 751.15,0 c 28.65,0 51.92,23.44 51.92,51.91 0,32.27 -27.37,45.18 -40.1,55.12"
         id="path16"
         style="fill:#ffffff;fill-opacity:1;fill-rule:nonzero;stroke:none" /><path
         d="m 5156.35,4047.36 c -1.04,-118.18 -117.99,-207.09 -255.86,-207.48 -138.32,0.39 -255.28,89.3 -256.21,207.48 l 0,149.75 c 0.78,119.02 117.89,207.56 256.21,207.85 137.75,-0.29 254.92,-88.83 255.86,-207.85 l 0,-149.75 z m 868.2,-688.03 c 0,0 -88.75,91.2 -174.2,169.61 85.45,159.42 124.71,357.7 124.71,593.4 -3.44,662.72 -292.81,1025.55 -1074.92,1028.93 -781.84,-3.38 -1071.29,-366.21 -1074.69,-1028.93 3.4,-661.97 293.12,-1029.53 1074.69,-1032.69 234.08,-1.14 424.29,34.57 576.29,100.47 81.36,-90.2 186.3,-192.5 186.3,-192.5 79.11,-79.01 224.75,-62.6 324.44,37.48 100.25,99.98 116.48,245.33 37.38,324.23"
         id="path18"
         style="fill:#ffffff;fill-opacity:1;fill-rule:nonzero;stroke:none" /><path
         d="m 4501.89,1614.8 22.74,0 c 10.87,0 18.28,1.62 22.24,4.85 3.95,3.26 5.91,7.54 5.91,12.89 0,3.43 -0.96,6.5 -2.84,9.2 -1.91,2.73 -4.55,4.74 -7.94,6.09 -3.38,1.33 -9.64,1.99 -18.81,1.99 l -21.3,0 0,-35.02 z m -18.72,-65.31 0,116.04 39.9,0 c 13.62,0 23.47,-1.06 29.57,-3.19 6.11,-2.15 10.95,-5.9 14.59,-11.25 3.63,-5.33 5.42,-10.97 5.42,-16.99 0,-8.5 -3.02,-15.88 -9.07,-22.15 -6.05,-6.29 -14.08,-9.82 -24.08,-10.58 4.08,-1.7 7.38,-3.77 9.86,-6.16 4.65,-4.57 10.37,-12.22 17.13,-22.99 l 14.15,-22.73 -22.86,0 -10.28,18.28 c -8.11,14.42 -14.64,23.38 -19.59,27.01 -3.43,2.7 -8.44,4.01 -15,4.01 l -11.02,0 0,-49.3 -18.72,0 z m 47.32,149.65 c -15.16,0 -29.91,-3.91 -44.24,-11.66 -14.34,-7.77 -25.58,-18.87 -33.66,-33.3 -8.1,-14.44 -12.14,-29.46 -12.14,-45.1 0,-15.53 3.96,-30.41 11.93,-44.65 7.94,-14.24 19.08,-25.37 33.37,-33.32 14.29,-7.97 29.21,-11.93 44.74,-11.93 15.53,0 30.46,3.96 44.73,11.93 14.3,7.95 25.41,19.08 33.32,33.32 7.91,14.24 11.86,29.12 11.86,44.65 0,15.64 -4.01,30.66 -12.08,45.1 -8.05,14.43 -19.27,25.53 -33.66,33.3 -14.41,7.75 -29.11,11.66 -44.17,11.66 z m 0,17.87 c 18.1,0 35.77,-4.65 53.03,-13.95 17.24,-9.29 30.69,-22.59 40.31,-39.88 9.63,-17.28 14.44,-35.33 14.44,-54.1 0,-18.57 -4.74,-36.45 -14.22,-53.61 -9.49,-17.13 -22.78,-30.45 -39.89,-39.94 -17.11,-9.46 -34.99,-14.2 -53.67,-14.2 -18.67,0 -36.56,4.74 -53.67,14.2 -17.11,9.49 -30.41,22.81 -39.96,39.94 -9.53,17.16 -14.27,35.04 -14.27,53.61 0,18.77 4.83,36.82 14.5,54.1 9.67,17.29 23.13,30.59 40.37,39.88 17.23,9.3 34.92,13.95 53.03,13.95"
         id="path20"
         style="fill:#ffffff;fill-opacity:1;fill-rule:nonzero;stroke:none" /></g></g></svg>