<?xml version="1.0" encoding="UTF-8" standalone="no"?>
<!-- Created with Inkscape (http://www.inkscape.org/) -->

<svg
   xmlns:dc="http://purl.org/dc/elements/1.1/"
   xmlns:cc="http://creativecommons.org/ns#"
   xmlns:rdf="http://www.w3.org/1999/02/22-rdf-syntax-ns#"
   xmlns:svg="http://www.w3.org/2000/svg"
   xmlns="http://www.w3.org/2000/svg"
   version="1.1"
   width="88"
   height="88"
   id="svg2"
   xml:space="preserve"><metadata
     id="metadata8"><rdf:RDF><cc:Work
         rdf:about=""><dc:format>image/svg+xml</dc:format><dc:type
           rdf:resource="http://purl.org/dc/dcmitype/StillImage" /><dc:title></dc:title></cc:Work></rdf:RDF></metadata><defs
     id="defs6" /><g
     transform="matrix(1.25,0,0,-1.25,0,88.000024)"
     id="g10"><g
       transform="matrix(0.10252141,0,0,0.10252141,-33.372299,24.149414)"
       id="g3006"><path
         d="m 325.51541,451.13119 686.68579,0 0,-686.68584 -686.68579,0 z M 465.48129,60.911904 c 16.59624,8.58225 25.6667,29.23292 19.71542,44.885976 -6.07352,15.97457 -13.20939,20.64908 -41.73224,27.33762 -25.11129,5.88854 -35.38449,16.22138 -23.56721,23.70403 10.14096,6.42121 17.32474,5.03881 27.69252,-5.32896 10.35575,-10.35575 32.48461,-10.91438 35.77176,-0.90304 1.04547,3.18409 -4.38573,12.07585 -12.06935,19.75946 -12.18741,12.18742 -17.27907,13.97021 -39.89892,13.97021 -19.61832,0 -28.16295,-2.23425 -35.10901,-9.18031 -12.14587,-12.14586 -15.67693,-27.82116 -9.76803,-43.36276 4.99707,-13.14327 11.65286,-17.02766 46.84405,-27.33864 27.48662,-8.053546 28.31746,-19.539296 1.55439,-21.488396 -16.13384,-1.17499 -19.87328,0.18342 -22.39741,8.13625 -2.14884,6.7704 -6.99515,9.546736 -16.66457,9.546736 -18.31268,0 -18.33237,-14.614596 -0.0442,-32.902636 11.10405,-11.1042 17.52486,-13.59021 35.10036,-13.59021 11.83067,0 27.38825,3.0396 34.57244,6.75467 z m 74.81256,4.37112 c 0,6.11918 -3.13827,12.33005 -6.97393,13.80193 -4.9204,1.88814 -6.97393,9.56422 -6.97393,26.068486 0,17.69367 1.69894,23.39234 6.97393,23.39234 4.33933,0 6.97393,4.39099 6.97393,11.62322 0,7.23222 -2.6346,11.62321 -6.97393,11.62321 -4.33933,0 -6.97393,4.39099 -6.97393,11.62321 0,9.81516 -2.16967,11.62321 -13.94786,11.62321 -11.61189,0 -13.94785,-1.86332 -13.94785,-11.12579 0,-6.11918 -3.13827,-12.33005 -6.97393,-13.80193 -3.83566,-1.47189 -6.97393,-6.92617 -6.97393,-12.12064 0,-5.29558 3.06361,-9.44449 6.97393,-9.44449 5.53012,0 6.97393,-6.68996 6.97393,-32.313966 0,-35.37582 4.35471,-41.66004 29.05803,-41.9332 10.42534,-0.11531 12.78554,1.91243 12.78554,10.98441 z m 53.60631,-6.25075 c 2.07426,3.35624 4.97697,3.24505 9.31705,-0.35688 3.46726,-2.87757 10.9501,-4.54829 16.62854,-3.71272 9.78278,1.43951 10.26669,3.45799 9.22394,38.47443 -0.60527,20.325366 -3.07807,40.650356 -5.4951,45.166626 -6.34433,11.85447 -35.9909,19.7484 -51.65491,13.75403 -22.42551,-8.58191 -34.24067,-37.75983 -15.29028,-37.75983 4.14795,0 2.21139,-4.27682 -5.36897,-11.85718 -20.60465,-20.604646 -6.48534,-48.583516 24.51729,-48.583516 8.31022,0 16.46532,2.19377 18.12244,4.87504 z m -21.06131,25.032 c 0,6.79338 17.22071,14.86271 21.84652,10.2369 1.40175,-1.40175 1.30974,-5.77713 -0.20448,-9.72308 -3.47011,-9.04301 -21.64204,-9.47445 -21.64204,-0.51382 z m -0.59304,36.637096 c 6.90919,8.4939 23.83946,10.76301 23.83946,3.19513 0,-2.55711 -2.96715,-4.64929 -6.59367,-4.64929 -3.62652,0 -10.4261,-1.43781 -15.11018,-3.19513 -7.49698,-2.81264 -7.75264,-2.25607 -2.13561,4.64929 z m 92.65241,-31.803046 c 1.38254,32.050766 5.81693,41.047126 17.93954,36.395246 4.44059,-1.70402 6.23322,-12.36594 6.23322,-37.072936 l 0,-34.68104 12.78558,1.47114 c 12.428,1.43001 12.8246,2.37747 14.1838,33.88759 1.3825,32.050766 5.8169,41.047126 17.9395,36.395246 4.4337,-1.70136 6.2333,-12.31531 6.2333,-36.764126 l 0,-34.37221 14.1223,0 14.1223,0 -1.3368,42.52008 c -1.2649,40.234186 -2.0221,43.030876 -14.0842,52.021426 -11.9963,8.94155 -13.6523,9.06982 -28.1065,2.17707 -13.4061,-6.39294 -16.5147,-6.47643 -24.4469,-0.65665 -5.072,3.72127 -13.19667,5.3786 -18.38631,3.75057 -5.11421,-1.60437 -17.14424,-2.6659 -26.73339,-2.35894 l -17.43482,0.5581 0,-49.31465 0,-49.314646 12.78554,1.47114 c 12.42806,1.43001 12.82463,2.37747 14.18384,33.88759 z m 179.06714,-29.39579 c 11.4961,6.05108 16.9539,12.89433 17.058,21.38808 0.088,7.19706 -24.0356,7.74083 -31.076,0.70048 -6.5983,-6.59832 -24.6442,-0.924 -24.6442,7.74908 0,5.09207 7.0538,6.66062 29.953,6.66062 l 29.953,0 1.4296,-19.75946 c 1.3413,-18.53774 2.2921,-19.75946 15.3776,-19.75946 l 13.9478,0 1.366,33.70731 c 0.7513,18.539026 3.3665,34.021146 5.8116,34.404706 15.1951,2.3837 16.1312,0.69196 18.3935,-33.242376 l 2.3246,-34.86964 13.9479,0 13.9478,0 0,40.52573 c 0,45.488386 -5.6713,56.466376 -28.7114,55.577346 -55.4038,-2.13781 -54.7648,-1.92363 -57.8506,-19.38988 -1.5813,-8.94987 -3.1504,-12.97588 -3.487,-8.94668 -1.2114,14.49947 -23.2874,29.65713 -43.1935,29.65713 -41.582,0 -62.4432,-55.879646 -32.1647,-86.158076 14.8202,-14.82027 38.6472,-18.22987 57.617,-8.24491 z m -38.6622,59.470296 c 0,7.04351 8.6559,10.40353 18.6387,7.23511 13.9894,-4.44008 11.0925,-11.61001 -4.6909,-11.61001 -7.6713,0 -13.9478,1.9687 -13.9478,4.3749 z M 694.81472,99.35981 c -235.79477,-225.99423 -117.89738,-112.997117 0,0 z m 0,0 c -235.79477,-225.99423 -117.89738,-112.997117 0,0 z m -95.31035,190.62068 c -172.25453,-353.074687 -86.12727,-176.53734 0,0 z"
         id="path3008"
         style="fill:#000000" /></g><path
       d=""
       id="path3002"
       style="fill:#000000" /><path
       d=""
       id="path3000"
       style="fill:#000000" /></g></svg>