<?xml version="1.0" encoding="UTF-8" standalone="no"?>
<!-- Created with Inkscape (http://www.inkscape.org/) -->

<svg
   xmlns:dc="http://purl.org/dc/elements/1.1/"
   xmlns:cc="http://creativecommons.org/ns#"
   xmlns:rdf="http://www.w3.org/1999/02/22-rdf-syntax-ns#"
   xmlns:svg="http://www.w3.org/2000/svg"
   xmlns="http://www.w3.org/2000/svg"
   version="1.1"
   width="44"
   height="40"
   id="svg3953">
  <defs
     id="defs3955" />
  <metadata
     id="metadata3958">
    <rdf:RDF>
      <cc:Work
         rdf:about="">
        <dc:format>image/svg+xml</dc:format>
        <dc:type
           rdf:resource="http://purl.org/dc/dcmitype/StillImage" />
        <dc:title></dc:title>
      </cc:Work>
    </rdf:RDF>
  </metadata>
  <path
     d="m 23.21875,2.09375 c -1.770686,0.088933 -3.549715,0.4310584 -5.28125,1.0625 -3.299434,1.2032106 -6.467636,3.6748662 -8.46875,6.5625 -0.768672,1.109204 -1.57907,2.550449 -1.59375,2.875 l 0,0.3125 0.71875,0.03125 c 0.932508,0.03719 1.109268,-0.01376 1.3125,-0.375 l 0.15625,-0.3125 2.5625,0 2.59375,0 0,0.3125 -0.03125,0.34375 0.84375,0 0.8125,0 L 17,12.5625 17.125,12.25 l 3.03125,0 3,0 0,0.25 c 0,0.377691 0.196063,0.4688 1.03125,0.4375 L 24.96875,12.90625 25,12.59375 l 0.0625,-0.28125 2.8125,0 2.8125,0 0.125,0.375 c 0.341669,0.986888 0.768251,3.527219 0.875,5.21875 L 31.78125,19 31.25,19.03125 l -0.53125,0 -0.03125,0.84375 c -0.03258,0.935342 2.33e-4,0.96645 0.65625,0.96875 l 0.4375,0 -0.0625,1.0625 c -0.03309,0.578318 -0.12682,1.379343 -0.1875,1.78125 -0.1571,1.040509 -0.674407,3.545455 -0.78125,3.75 -0.08336,0.159594 -0.280571,0.14898 -2.875,0.125 L 25.0625,27.53125 25,27.25 l -0.03125,-0.28125 -0.84375,0 -0.8125,0 -0.09375,0.3125 -0.09375,0.3125 -3,-0.03125 L 17.15625,27.53125 17,27.21875 l -0.125,-0.3125 -0.84375,0.03125 -0.84375,0.03125 0,0.28125 0,0.28125 -2.375,0.03125 c -1.314002,0.01512 -2.485786,0.02634 -2.59375,0 -0.107963,-0.02634 -0.27851,-0.180407 -0.375,-0.34375 -0.174727,-0.29579 -0.189593,-0.3125 -1.0625,-0.3125 -0.706456,0 -0.89006,0.03263 -0.9375,0.15625 -0.10488,0.273313 1.041983,2.312947 2.03125,3.625 1.043625,1.384147 2.828374,3.072927 4.21875,4 2.652441,1.76859 5.073279,2.624313 8.53125,3.03125 1.98679,0.233798 4.541396,-0.08479 7.46875,-0.9375 0.592148,-0.172487 2.899569,-1.363643 3.78125,-1.9375 1.573187,-1.023938 3.447382,-2.734973 4.5625,-4.21875 1.540888,-2.050307 2.71454,-4.760663 3.25,-7.5 0.238938,-1.222301 0.23962,-5.199008 0,-6.4375 C 40.955867,12.906017 39.453816,10.112173 36.65625,7.25 35.267932,5.8296198 33.776841,4.7563276 31.9375,3.875 29.128794,2.5291968 26.169893,1.9455278 23.21875,2.09375 z m -0.375,1.875 0.3125,0 0,3.21875 0,3.21875 -2.6875,0 -2.6875,0 0.0625,-0.21875 c 0.443996,-1.4376378 1.824592,-3.9861988 2.96875,-5.5 0.336031,-0.444592 0.38062,-0.479739 1.03125,-0.59375 0.375977,-0.065883 0.825439,-0.1208 1,-0.125 z M 25.0625,4 25.65625,4.03125 c 0.322266,0.0131 0.665917,0.03567 0.78125,0.0625 0.372095,0.086551 1.800832,2.2743418 2.65625,4.03125 0.467005,0.9591646 0.999707,2.126842 1,2.25 2.5e-5,0.01342 -1.128686,0.03125 -2.5,0.03125 -1.906802,0 -2.49865,-0.03165 -2.53125,-0.125 -0.02345,-0.06714 -0.04295,-1.4956064 -0.03125,-3.1875 L 25.0625,4 z m 4.375,0.875 c 0.142856,-0.142855 2.551432,1.0367044 3.6875,1.8125 1.304395,0.8907426 3.329466,2.8149178 3.71875,3.53125 0.08732,0.160688 -0.074,0.1875 -2.375,0.1875 l -2.4375,0 L 31.9375,10.125 C 31.35932,8.5732032 30.21266,6.2317636 29.625,5.34375 29.479261,5.123515 29.40766,4.90484 29.4375,4.875 z M 18.25,5.0625 c 0.02817,0.028167 -0.171094,0.43443 -0.4375,0.90625 -0.490395,0.8685226 -1.120372,2.1694494 -1.71875,3.59375 l -0.3125,0.78125 -2.21875,0.03125 c -1.22128,0.01444 -2.21875,-0.01598 -2.21875,-0.0625 0,-0.24857 1.828107,-2.1567654 2.84375,-2.96875 C 15.215309,6.5220374 18.093314,4.9058134 18.25,5.0625 z m 14.34375,7.1875 2.8125,0 2.78125,0 0.25,0.53125 c 0.844796,1.716811 1.625,4.455448 1.625,5.8125 L 40.03125,19 36.84375,19 33.625,19 33.5625,18.4375 c -0.03058,-0.308838 -0.09159,-0.949707 -0.125,-1.40625 -0.08048,-1.099661 -0.436186,-3.300776 -0.75,-4.5 L 32.59375,12.25 z M 10.5625,14.125 c 0,0 -5.074447,0.03842 -5.34375,0.1875 -0.330394,0.182898 -0.742289,0.618361 -0.90625,0.9375 -0.076299,0.148501 -0.125,1.586218 -0.125,4.6875 0,4.912729 -0.023728,4.711659 0.625,5.28125 0.316042,0.277488 0.569859,0.36413 1.25,0.4375 0.134273,0.01445 -4.187768,0.03875 5.09375,0.03125 L 28.03125,25.65625 28.5,25.375 c 0.325749,-0.201395 0.52027,-0.432563 0.71875,-0.8125 L 29.5,24.03125 29.46875,19.84375 c -0.02785,-4.141964 -0.03446,-4.221764 -0.25,-4.625 C 28.958441,14.731759 28.536362,14.372229 28,14.21875 27.711622,14.136185 10.5625,14.125 10.5625,14.125 z M 23,17.03125 l 0.59375,0 0.59375,0 0,2.90625 0,2.875 -0.53125,0 c -0.286459,0 -0.55794,-0.02669 -0.59375,-0.0625 C 23.0267,22.714194 23,21.423666 23,19.875 l 0,-2.84375 z m 2.53125,0 0.5625,0.03125 0.5625,0.03125 0,2.84375 0,2.8125 -0.5625,0.03125 -0.5625,0.03125 0,-2.875 0,-2.90625 z m -5.03125,0.0625 0.59375,0 0.59375,0 0,2.84375 0,2.8125 -0.5625,0.03125 c -0.396594,0.02067 -0.5903,-0.0033 -0.625,-0.09375 -0.02703,-0.07056 -0.0143,-1.371819 0,-2.875 l 0,-2.71875 z m -11,0.625 c 0.838822,-0.102717 1.746977,0.254481 2.21875,1.21875 0.225128,0.460153 0.2624,0.643667 0.21875,1.125 -0.07611,0.839315 -0.498634,1.487524 -1.1875,1.84375 -0.293893,0.151981 -1.384306,0.25289 -1.625,0.15625 -0.468358,-0.188047 -1.056242,-0.655254 -1.25,-1 C 7.75305,20.845519 7.62334,20.411712 7.59375,20.125 7.4520585,18.752144 8.4215143,17.850815 9.5,17.71875 z m 7.46875,0 c 0.312381,9.41e-4 0.638789,0.06957 0.9375,0.21875 1.232127,0.615355 1.610852,2.157964 0.8125,3.21875 -0.329512,0.437829 -0.459536,0.551448 -0.9375,0.78125 -0.964948,0.463944 -2.276838,-0.01665 -2.78125,-1 -0.28877,-0.562955 -0.33836,-0.996207 -0.15625,-1.625 0.284034,-0.980712 1.187858,-1.596574 2.125,-1.59375 z m 16.65625,3.125 3.21875,0 3.21875,0 L 40,21.65625 c -0.09037,1.169501 -0.643402,3.298477 -1.1875,4.53125 -0.257864,0.584247 -0.51535,1.12476 -0.59375,1.21875 -0.129496,0.155258 -0.404653,0.1875 -2.875,0.1875 -2.185631,0 -2.71875,-0.02151 -2.71875,-0.125 0,-0.07082 0.07351,-0.377647 0.15625,-0.65625 C 33.020393,26.007217 33.366252,23.76402 33.5,22.25 l 0.125,-1.40625 z m 0.90625,8.5 c 1.199425,-0.0066 2.40625,0.01765 2.40625,0.09375 0,0.155531 -1.09398,1.359587 -2.03125,2.25 -1.047767,0.995386 -2.490277,2.005667 -3.75,2.59375 -1.398154,0.652708 -1.65625,0.746459 -1.65625,0.625 0,-0.05892 0.397912,-0.862684 0.875,-1.78125 0.477088,-0.918564 1.0178,-2.083496 1.21875,-2.59375 0.200948,-0.510253 0.41511,-0.99536 0.46875,-1.0625 0.06107,-0.07644 1.269325,-0.118354 2.46875,-0.125 z m -22.625,0.03125 c 0.409385,-0.0064 0.972614,-0.0072 1.59375,0 l 2.25,0.03125 0.46875,1.15625 c 0.507957,1.252845 1.302817,2.840139 1.78125,3.59375 0.161238,0.253983 0.26883,0.506 0.25,0.5625 C 18.2124,34.831561 16.716864,34.129094 15.78125,33.5625 14.864835,33.007533 13.755283,32.149296 12.96875,31.375 12.233255,30.650948 11.25,29.517524 11.25,29.40625 c 0,-0.01698 0.246865,-0.0248 0.65625,-0.03125 z m 9.0625,0 2.125,0.03125 0.03125,3.25 0.03125,3.25 L 22.9375,35.875 c -0.57869,-0.03352 -1.356704,-0.170118 -1.625,-0.28125 -0.305392,-0.126497 -0.734488,-0.676722 -1.59375,-2.0625 -0.506311,-0.816555 -1.77639,-3.392777 -1.875,-3.8125 -0.05956,-0.253525 -0.05962,-0.25832 0.4375,-0.3125 0.282034,-0.03077 1.505859,-0.04469 2.6875,-0.03125 z m 4.09375,0.03125 2.4375,0 c 1.351746,0 2.49428,0.02551 2.53125,0.0625 0.09002,0.09006 -0.776666,2.01004 -1.53125,3.375 -0.794946,1.437971 -1.720701,2.72729 -2.03125,2.84375 -0.414476,0.15543 -1.36061,0.193016 -1.40625,0.0625 -0.02226,-0.06357 -0.04311,-1.5 -0.03125,-3.21875 l 0.03125,-3.125 z"
     id="path3883"
     style="fill:#000000" />
</svg>
