<?xml version="1.0" encoding="UTF-8" standalone="no"?>
<!-- Created with Inkscape (http://www.inkscape.org/) -->

<svg
   xmlns:dc="http://purl.org/dc/elements/1.1/"
   xmlns:cc="http://creativecommons.org/ns#"
   xmlns:rdf="http://www.w3.org/1999/02/22-rdf-syntax-ns#"
   xmlns:svg="http://www.w3.org/2000/svg"
   xmlns="http://www.w3.org/2000/svg"
   version="1.1"
   width="88"
   height="88"
   id="svg2">
  <defs
     id="defs4" />
  <metadata
     id="metadata7">
    <rdf:RDF>
      <cc:Work
         rdf:about="">
        <dc:format>image/svg+xml</dc:format>
        <dc:type
           rdf:resource="http://purl.org/dc/dcmitype/StillImage" />
        <dc:title></dc:title>
      </cc:Work>
    </rdf:RDF>
  </metadata>
  <path
     d="m 80.5625,1.0625 c -3.313708,0 -6,2.686292 -6,6 0,0.719457 0.142813,1.3920165 0.375,2.03125 L 62.21875,20.21875 53.8125,10.75 c 0.07993,-0.390586 0.125,-0.7732865 0.125,-1.1875 0,-3.313708 -2.686292,-6 -6,-6 -2.831271,0 -5.212728,1.9558567 -5.84375,4.59375 L 19.375,19.5 c -0.643277,-0.235535 -1.337626,-0.375 -2.0625,-0.375 -3.313708,0 -6,2.686292 -6,6 0,1.218207 0.376194,2.366177 1,3.3125 l -5.5,21.9375 c -2.9036713,0.419445 -5.125,2.91766 -5.125,5.9375 0,3.313708 2.686292,6 6,6 1.5110282,0 2.8826,-0.578091 3.9375,-1.5 L 26.65625,69 l -12,6.65625 c -0.950556,-0.632357 -2.085224,-0.96875 -3.3125,-0.96875 -3.313708,0 -6,2.686292 -6,6 0,3.313708 2.686292,6 6,6 3.313708,0 6,-2.686292 6,-6 0,-0.251327 -0.03249,-0.50679 -0.0625,-0.75 l 14.5625,-8.09375 13.8125,7.53125 c -0.0013,0.05133 0,0.104602 0,0.15625 0,3.313708 2.686292,6 6,6 3.313708,0 6,-2.686292 6,-6 0,-0.769747 -0.142155,-1.51127 -0.40625,-2.1875 l 21.21875,-27.3125 c 0.132585,0.0088 0.27145,0.03125 0.40625,0.03125 3.313708,0 6,-2.686292 6,-6 0,-3.313708 -2.686292,-6 -6,-6 -0.251327,0 -0.50679,0.03249 -0.75,0.0625 L 65.53125,23.96875 78.46875,12.65625 c 0.658138,0.248131 1.348803,0.40625 2.09375,0.40625 3.313708,0 6,-2.686292 6,-6 0,-3.313708 -2.686292,-6 -6,-6 z m -37.375,12.15625 c 1.097158,1.422254 2.814809,2.34375 4.75,2.34375 1.02017,0 1.97134,-0.269613 2.8125,-0.71875 l 7.71875,8.6875 -7.71875,6.75 c -0.864622,-0.482979 -1.845519,-0.75 -2.90625,-0.75 -3.313708,0 -6,2.686292 -6,6 0,2.485281 1.50276,4.6204 3.65625,5.53125 l 0,14.25 c -2.427753,0.725777 -4.214338,2.946062 -4.28125,5.59375 l -9.4375,5.25 -18.09375,-9.875 c -0.009,-1.782289 -0.789546,-3.406792 -2.03125,-4.5 l 5.15625,-20.6875 c 0.170716,0.0146 0.325504,0.03125 0.5,0.03125 3.313708,0 6,-2.686292 6,-6 0,-0.636026 -0.09788,-1.23726 -0.28125,-1.8125 L 43.1875,13.21875 z M 61.78125,27.25 73.8125,40.8125 c -0.608718,0.938666 -0.9375,2.04792 -0.9375,3.25 0,1.329434 0.424455,2.567988 1.15625,3.5625 L 53.625,73.875 c -0.617276,-0.214568 -1.278394,-0.34375 -1.96875,-0.34375 -1.449747,0 -2.775346,0.519065 -3.8125,1.375 L 37,68.96875 l 6.21875,-3.4375 c 1.062585,0.954883 2.458941,1.53125 4,1.53125 3.313708,0 6,-2.686292 6,-6 0,-2.110627 -1.071158,-3.961709 -2.71875,-5.03125 l 0,-15.15625 c 1.968222,-0.984397 3.34375,-2.993368 3.34375,-5.34375 0,-0.414214 -0.04507,-0.828164 -0.125,-1.21875 L 61.78125,27.25 z M 75,69.625 c -3.313708,0 -6,2.686292 -6,6 0,3.313708 2.686292,6 6,6 3.313708,0 6,-2.686292 6,-6 0,-3.313708 -2.686292,-6 -6,-6 z"
     id="path3778"
     style="font-size:medium;font-style:normal;font-variant:normal;font-weight:normal;font-stretch:normal;text-indent:0;text-align:start;text-decoration:none;line-height:normal;letter-spacing:normal;word-spacing:normal;text-transform:none;direction:ltr;block-progression:tb;writing-mode:lr-tb;text-anchor:start;baseline-shift:baseline;color:#000000;fill:#000000;fill-opacity:1;stroke:none;stroke-width:5;marker:none;visibility:visible;display:inline;overflow:visible;enable-background:accumulate;font-family:Sans;-inkscape-font-specification:Sans" />
</svg>
