<?xml version="1.0" encoding="UTF-8" standalone="no"?>
<!-- Created with Inkscape (http://www.inkscape.org/) -->

<svg
   xmlns:dc="http://purl.org/dc/elements/1.1/"
   xmlns:cc="http://creativecommons.org/ns#"
   xmlns:rdf="http://www.w3.org/1999/02/22-rdf-syntax-ns#"
   xmlns:svg="http://www.w3.org/2000/svg"
   xmlns="http://www.w3.org/2000/svg"
   version="1.1"
   width="54"
   height="40"
   id="svg3953">
  <defs
     id="defs3955" />
  <metadata
     id="metadata3958">
    <rdf:RDF>
      <cc:Work
         rdf:about="">
        <dc:format>image/svg+xml</dc:format>
        <dc:type
           rdf:resource="http://purl.org/dc/dcmitype/StillImage" />
        <dc:title></dc:title>
      </cc:Work>
    </rdf:RDF>
  </metadata>
  <path
     d="m 26.8125,4.40625 c -8.469049,0 -15.34375,6.905952 -15.34375,15.375 0,8.469049 6.874701,15.34375 15.34375,15.34375 8.469048,0 15.375,-6.874701 15.375,-15.34375 l -1.9375,0 c 0.0126,-0.242366 0.03463,-0.462368 0.03125,-0.625 L 42.1875,19.0625 C 41.823351,10.864616 35.018467,4.40625 26.8125,4.40625 z M 10.53125,4.46875 C 9.0003453,4.4781882 8.7724754,4.515383 8.0625,4.90625 7.2220274,5.3689556 6.3980708,6.4185655 6.09375,7.40625 5.9965885,7.7215739 5.8828838,9.85265 5.8125,12.125 5.6713574,16.680887 5.6053396,16.988411 4.65625,17.9375 4.2986728,18.295077 3.8940184,18.5219 3.46875,18.59375 2.5389272,18.750844 2.375,18.97454 2.375,20.15625 c 0,1.303185 0.1666376,1.590485 0.96875,1.71875 0.8117139,0.129797 1.6426206,0.843361 2.03125,1.75 0.2460737,0.574054 0.3076112,1.334064 0.4375,4.59375 0.085806,2.153285 0.2020579,4.168631 0.25,4.46875 0.2069412,1.294398 1.1189137,2.513292 2.34375,3.125 0.6066262,0.302977 0.9205798,0.325261 2.1875,0.3125 0.822744,-0.0083 1.55123,-0.05123 1.625,-0.125 0.07377,-0.07377 0.11888,-0.717554 0.09375,-1.4375 -0.03567,-1.022299 -0.09861,-1.31971 -0.28125,-1.34375 -0.128623,-0.01693 -0.561851,-0.07149 -0.96875,-0.125 -0.450252,-0.05922 -0.907686,-0.264552 -1.1875,-0.5 l -0.46875,-0.375 -0.0625,-3.25 C 9.3057526,27.193059 9.21157,25.37787 9.15625,24.90625 8.9490826,23.139782 8.1090939,21.527551 6.96875,20.75 l -0.625,-0.4375 0.84375,-0.875 c 0.8352048,-0.830057 1.1520774,-1.301969 1.59375,-2.5 C 8.9146855,16.575554 9.002268,15.085314 9.0625,12.5 9.1344417,9.411903 9.2209663,8.531093 9.40625,8.25 9.6513962,7.8780955 10.382151,7.5894664 11.5625,7.4375 L 12.28125,7.34375 12.3125,6.125 C 12.33781,5.4465899 12.32529,4.8022618 12.28125,4.6875 12.22087,4.5301543 11.798813,4.46108 10.53125,4.46875 z m 33.03125,0 c -0.822744,0.0083 -1.55123,0.082479 -1.625,0.15625 -0.07377,0.073765 -0.11888,0.7175536 -0.09375,1.4375 0.03567,1.0222993 0.09861,1.3197077 0.28125,1.34375 0.128623,0.016934 0.593101,0.071489 1,0.125 0.450252,0.059219 0.907686,0.2645526 1.1875,0.5 l 0.46875,0.375 0.0625,3.25 c 0.038,1.775692 0.10093,3.590881 0.15625,4.0625 0.207167,1.766468 1.047156,3.378699 2.1875,4.15625 l 0.65625,0.4375 -0.875,0.875 c -0.835204,0.830057 -1.120828,1.301969 -1.5625,2.5 -0.133436,0.361946 -0.22102,1.852185 -0.28125,4.4375 -0.07194,3.088096 -0.158466,3.968907 -0.34375,4.25 -0.245146,0.371905 -1.007147,0.660533 -2.1875,0.8125 l -0.6875,0.09375 -0.0625,1.21875 c -0.02531,0.67841 -0.01279,1.322739 0.03125,1.4375 0.06038,0.157345 0.513687,0.22645 1.78125,0.21875 1.530905,-0.0094 1.758775,-0.07788 2.46875,-0.46875 0.840473,-0.462706 1.633179,-1.481065 1.9375,-2.46875 0.09716,-0.315324 0.24212,-2.4464 0.3125,-4.71875 0.141142,-4.555887 0.20716,-4.863411 1.15625,-5.8125 0.357577,-0.357577 0.762231,-0.5844 1.1875,-0.65625 0.929823,-0.157094 1.09375,-0.38079 1.09375,-1.5625 0,-1.303185 -0.166637,-1.590485 -0.96875,-1.71875 C 50.032036,18.620203 49.20113,17.906639 48.8125,17 48.566427,16.425946 48.504889,15.665935 48.375,12.40625 48.289195,10.252965 48.17294,8.2376186 48.125,7.9375 47.918059,6.6431016 47.006086,5.4242077 45.78125,4.8125 45.174624,4.5095228 44.829419,4.455989 43.5625,4.46875 z m -16.84375,2.5625 c 0.316413,-0.00549 0.62409,0.00683 0.875,0.03125 0.01024,6.113e-4 0.02102,-6.354e-4 0.03125,0 0.216723,0.022877 0.38969,0.07731 0.4375,0.125 0.09053,0.090301 0.303257,0.15625 0.5,0.15625 0.196744,0 0.554045,0.1525696 0.78125,0.34375 0.395763,0.3330128 1.0625,1.482894 1.0625,1.84375 0,0.381789 0.485283,0.6875 1.125,0.6875 0.499958,0 0.759876,-0.101943 1.3125,-0.46875 0.38246,-0.253863 0.71775,-0.5417 0.71875,-0.625 0.0014,-0.10191 0.0288,-0.09265 0.09375,0 0.05308,0.075713 0.391169,0.292569 0.75,0.5 0.358829,0.207431 1.0377,0.785742 1.53125,1.28125 l 0.5,0.5 c 0.139273,0.160744 0.27504,0.332269 0.40625,0.5 l -0.0625,0.75 c -0.04087,0.470558 -0.14963,0.970307 -0.21875,1.09375 -0.218896,0.390896 -0.78125,2.195664 -0.78125,2.5 0,0.399814 0.349713,1.023448 0.65625,1.1875 0.138994,0.07439 0.523459,0.15625 0.84375,0.15625 0.444045,0 0.791836,0.107982 1.53125,0.53125 0.332044,0.190073 0.485156,0.301777 0.6875,0.4375 0.01961,0.209926 0.02179,0.412085 0.03125,0.625 l 0.4375,-0.03125 c 0.01021,0.159048 -0.02,0.38582 -0.03125,0.625 l -0.375,0 c 0,2.620587 -0.775204,5.039031 -2.125,7.0625 -0.01284,0.01925 -0.0183,0.04332 -0.03125,0.0625 -0.889219,1.142808 -1.939167,2.23271 -2.78125,2.875 -0.576084,0.439401 -0.817415,0.28172 -1.03125,-0.59375 -0.08697,-0.356067 -0.236639,-0.946404 -0.34375,-1.34375 -0.362098,-1.343333 -0.239187,-3.383115 0.21875,-3.65625 0.426227,-0.254223 0.64019,-0.812834 0.5625,-1.46875 C 33.93238,21.883935 33.661339,21.447635 33.0625,21.25 32.61909,21.103663 31.478872,20.526139 29.78125,19.59375 l -0.65625,-0.375 -0.65625,0.25 C 28.119339,19.593987 27.77499,19.687894 27.6875,19.6875 27.6,19.687143 27.180388,19.418852 26.78125,19.09375 25.958111,18.423292 25.785233,18.395294 25.5,18.8125 L 25.3125,19.09375 24.90625,18.625 C 24.686402,18.372144 24.5031,18.054354 24.5,17.90625 c -0.0029,-0.148102 -0.07101,-0.35226 -0.15625,-0.4375 -0.288611,-0.28861 0.378042,-1.32811 0.84375,-1.3125 0.270069,0.0091 0.289072,0.01421 0.03125,0.125 -0.220153,0.09459 -0.201498,0.1172 0.15625,0.125 0.234796,0.0051 0.4375,0.03507 0.4375,0.09375 0,0.05866 0.159507,0.246932 0.375,0.40625 l 0.40625,0.28125 0.28125,-0.28125 c 0.218924,-0.218926 0.24635,-0.387346 0.1875,-0.75 -0.07947,-0.489712 0.04675,-0.817271 0.46875,-1.28125 0.405074,-0.445355 0.494487,-1.132612 0.25,-1.8125 -0.199231,-0.554054 -0.169942,-0.5869 0.0625,-0.84375 0.135268,-0.149466 0.367745,-0.28125 0.53125,-0.28125 0.163507,0 0.385725,-0.0499 0.5,-0.09375 0.246095,-0.09443 0.294986,-0.637564 0.0625,-0.78125 -0.10115,-0.06251 0.04692,-0.16252 0.40625,-0.25 0.960768,-0.233937 0.95556,-0.432719 0,-1.5 -0.46047,-0.514305 -0.90409,-0.9375 -1,-0.9375 -0.09591,0 -0.23663,-0.071251 -0.28125,-0.1875 -0.04461,-0.116248 -0.190085,-0.3654437 -0.34375,-0.53125 -0.337109,-0.3637423 -1,-0.2943838 -1,0.09375 0,0.4360683 -0.151968,0.625 -0.46875,0.625 -0.172883,0 -0.449259,0.136759 -0.59375,0.28125 C 25.396441,8.916058 25.295226,9.623443 25.5,9.75 c 0.0582,0.036001 0.09403,0.292554 0.0625,0.5625 l -0.0625,0.5 -0.1875,-0.34375 C 25.204836,10.263267 24.918,10.042017 24.5625,9.90625 24.090488,9.725988 23.933144,9.584305 23.8125,9.21875 23.694719,8.861872 23.606769,8.76005 23.40625,8.8125 23.223941,8.860174 23.11456,8.812876 23.03125,8.59375 22.944171,8.364697 22.850456,8.30152 22.625,8.34375 22.458481,8.37493 22.422878,8.35884 22.53125,8.3125 c 0.455002,-0.194614 0.63537,-0.4658102 0.5,-0.71875 0.14198,-0.044058 0.293426,-0.054557 0.4375,-0.09375 -0.01441,0.054242 -0.0309,0.1137659 -0.03125,0.1875 -9.7e-4,0.2023614 -0.05018,0.493699 -0.09375,0.65625 -0.05732,0.213888 -0.02308,0.3125 0.125,0.3125 0.265806,0 0.39244,-0.1707641 0.40625,-0.65625 0.0062,-0.2167901 0.02881,-0.377445 0.0625,-0.34375 0.0337,0.0337 0.145071,-0.020072 0.25,-0.125 0.104929,-0.1049388 0.418126,-0.1875 0.6875,-0.1875 0.269368,0 0.55025,-0.081497 0.625,-0.15625 0.09866,-0.098661 0.651056,-0.1463928 1.21875,-0.15625 z M 29.5,7.3125 c 0.447057,0.095667 0.884172,0.2338612 1.3125,0.375 -0.435885,0.069032 -0.592875,0.4116104 -0.21875,0.90625 0.106074,0.140236 0.1853,0.358396 0.1875,0.46875 C 30.78355,9.172857 30.887536,9.370688 31,9.53125 31.300952,9.960919 31.722999,9.887978 32.28125,9.3125 32.6156,8.9678347 32.765845,8.6865927 32.75,8.46875 c 0.224659,0.117726 0.439749,0.2444692 0.65625,0.375 -0.142688,0.062849 -0.477089,0.2543856 -0.84375,0.53125 -0.427999,0.323174 -0.863348,0.59375 -1,0.59375 -0.327945,0 -0.78125,-0.226327 -0.78125,-0.40625 0,-0.219217 -0.661657,-1.7467314 -0.875,-2 C 29.854313,7.5008426 29.69268,7.413684 29.5,7.3125 z m -7.53125,0.65625 c -0.05413,0.1495356 -0.04874,0.2984959 0.0625,0.34375 0.08625,0.03509 -0.292256,0.0569 -0.84375,0.0625 -0.0262,2.71e-4 -0.03764,-2.695e-4 -0.0625,0 0.281956,-0.140935 0.550289,-0.2860626 0.84375,-0.40625 z m -2.625,1.5 c -0.131955,0.2950267 -0.171002,0.619559 -0.125,1.09375 0.03491,0.359875 -0.377052,1.21735 -0.625,1.3125 -0.111393,0.04276 -0.23788,0.01211 -0.3125,-0.0625 -0.07461,-0.07461 -0.316923,-0.125 -0.53125,-0.125 -0.214326,0 -0.36778,-0.07082 -0.3125,-0.125 0.05528,-0.05417 0.382704,-0.09375 0.71875,-0.09375 l 0.625,0 0.03125,-0.8125 c 0.02204,-0.462807 0.02907,-0.6618308 -0.03125,-0.75 0.183906,-0.1500548 0.370236,-0.2977339 0.5625,-0.4375 z M 37.125,12.25 c 0.225213,0.3094 0.42781,0.638807 0.625,0.96875 -0.11513,0.02077 -0.209637,0.04054 -0.28125,0.125 -0.223006,0.263023 -1.03125,2.391506 -1.03125,2.71875 0,0.126381 0.106898,0.408706 0.21875,0.625 0.179554,0.347239 0.262693,0.38887 0.75,0.375 0.303557,-0.0086 0.911803,0.07738 1.34375,0.21875 0.215974,0.0707 0.421142,0.152527 0.59375,0.1875 0.03219,0.177421 0.06889,0.351242 0.09375,0.53125 -0.19113,-0.111178 -0.371891,-0.211321 -0.59375,-0.34375 -0.415225,-0.247854 -0.898609,-0.38404 -1.40625,-0.4375 -0.642751,-0.06767 -0.807012,-0.167699 -1.03125,-0.46875 -0.247028,-0.331639 -0.2759,-0.404556 -0.125,-0.96875 0.09079,-0.339464 0.319448,-0.986195 0.5,-1.4375 0.231947,-0.579772 0.32706,-1.094777 0.34375,-1.78125 0.0031,-0.129143 -6.04e-4,-0.213349 0,-0.3125 z m -21.21875,0.9375 c 0.0756,0.113483 0.19572,0.269507 0.375,0.40625 0.358105,0.273156 0.530724,0.32384 0.8125,0.25 0.198834,-0.05211 0.600279,-0.11448 0.875,-0.125 0.542946,-0.02082 0.474907,-0.07959 1.1875,1.375 0.233564,0.476768 0.30611,0.75641 0.21875,0.84375 -0.08735,0.08735 -0.125,0.02545 -0.125,-0.15625 0,-0.150094 -0.110389,-0.34756 -0.21875,-0.4375 -0.108362,-0.08994 -0.1875,-0.27487 -0.1875,-0.40625 0,-0.131379 -0.05276,-0.26786 -0.125,-0.3125 -0.225143,-0.139144 -0.159363,0.303419 0.1875,1.09375 0.492236,1.121561 0.525641,1.15825 0.9375,1.15625 0.486049,-0.0023 0.83845,0.29635 0.84375,0.71875 0.0023,0.182619 0.08143,0.422263 0.1875,0.5625 0.106076,0.140237 0.1875,0.398738 0.1875,0.5625 0,0.430292 0.942418,1.36897 1.3125,1.3125 0.160576,-0.02451 0.34947,-0.12688 0.40625,-0.21875 0.07881,-0.127525 0.219093,-0.06874 0.625,0.1875 0.292429,0.184604 0.57854,0.39359 0.625,0.46875 0.108184,0.175024 1.25,0.174588 1.25,0 0,-0.07225 -0.24227,-0.125 -0.53125,-0.125 -0.288982,0 -0.53125,-0.065 -0.53125,-0.125 0,-0.06 -0.25712,-0.289501 -0.59375,-0.53125 -0.589129,-0.423083 -0.622378,-0.448791 -0.96875,-0.25 -0.351111,0.20151 -0.382226,0.222644 -0.84375,-0.25 -0.260149,-0.266418 -0.46875,-0.612809 -0.46875,-0.75 0,-0.23938 -0.01093,-0.228633 0.15625,0 0.255021,0.348761 0.7557,0.144596 0.78125,-0.3125 l 0,-0.34375 0.0625,0.34375 c 0.05164,0.338082 0.378231,0.679831 1.59375,1.65625 0.530267,0.42596 1.002561,0.561176 1.15625,0.3125 0.04465,-0.07226 0.183468,-0.15625 0.3125,-0.15625 0.338999,0 0.70802,-0.463775 0.625,-0.78125 -0.05457,-0.208681 0.04586,-0.149748 0.5,0.25 0.664123,0.584583 1.40917,0.755097 2.125,0.46875 0.479591,-0.191843 0.847497,-0.120873 1.5,0.34375 0.357411,0.254497 0.941205,0.594887 2.0625,1.1875 0.250074,0.132167 0.569484,0.25 0.6875,0.25 0.351129,0 0.68057,0.477762 0.75,1.09375 0.05916,0.524858 0.01375,0.611254 -0.40625,1.03125 -0.419077,0.419077 -0.48296,0.557735 -0.5625,1.4375 -0.112909,1.248882 -0.02855,2.08135 0.3125,3.09375 0.15096,0.448116 0.28125,0.951849 0.28125,1.125 0,0.173147 0.131517,0.497143 0.28125,0.6875 0.107454,0.136605 0.196492,0.230818 0.3125,0.28125 -0.366991,0.24304 -0.763831,0.451523 -1.15625,0.65625 -0.08167,-0.129506 -0.417099,-0.03405 -1.15625,0.34375 -0.453692,0.231898 -1.138774,0.44795 -1.5,0.5 -0.361223,0.05204 -0.924898,0.17587 -1.25,0.25 -0.776318,0.176976 -3.332237,0.176701 -4,0 C 24.523521,32.079784 24.122986,31.97066 23.90625,31.9375 22.288921,31.69001 19.642194,30.347907 18,28.90625 17.754469,28.690704 17.530257,28.473578 17.3125,28.25 17.211,28.145787 17.0964,28.044723 17,27.9375 c -0.04255,-0.05104 -0.08324,-0.104538 -0.125,-0.15625 -0.228527,-0.282991 -0.42098,-0.572734 -0.625,-0.875 -1.37345,-2.03483 -2.1875,-4.479477 -2.1875,-7.125 0,-2.155086 0.529179,-4.190769 1.46875,-5.96875 0.0838,0.08381 0.15625,0.22301 0.15625,0.3125 0,0.28389 1.14322,0.363347 1.75,0.125 0.499173,-0.195968 0.559691,-0.200507 0.78125,0 0.287394,0.260092 0.43152,0.187496 0.3125,-0.1875 -0.09186,-0.289416 -0.698089,-0.392352 -0.9375,-0.15625 -0.06863,0.06768 -0.393651,0.13363 -0.71875,0.15625 -0.523733,0.03644 -0.646022,-0.0074 -0.96875,-0.375 -0.06309,-0.07185 -0.11785,-0.130987 -0.1875,-0.1875 0.05898,-0.104329 0.125689,-0.210035 0.1875,-0.3125 z m 10.28125,6.53125 c -0.140217,-0.0109 -0.152459,0.07319 -0.0625,0.21875 0.04244,0.06866 0.353856,0.249416 0.6875,0.40625 0.544774,0.256071 0.570807,0.300021 0.40625,0.5 -0.336373,0.408783 -0.625,1.21621 -0.625,1.71875 0,1.316694 0.786673,2.625 1.5625,2.625 0.64889,0 1.228115,0.430262 1.4375,1.0625 0.105515,0.318592 0.330744,0.824268 0.5,1.09375 0.169256,0.269483 0.3125,0.54773 0.3125,0.625 0,0.203071 0.348946,0.823949 0.65625,1.1875 0.145575,0.172218 0.488531,0.620713 0.78125,1 0.348131,0.451085 0.628723,0.6875 0.8125,0.6875 0.245049,0 0.197257,-0.07559 -0.28125,-0.5625 C 31.717132,29.611826 30.78125,28.281232 30.78125,28 c 0,-0.110837 -0.163476,-0.531452 -0.375,-0.90625 -0.211523,-0.3748 -0.41811,-0.886345 -0.46875,-1.15625 -0.107872,-0.575008 -0.676514,-0.999194 -1.34375,-1 -0.670004,-7.79e-4 -1.260241,-0.618985 -1.53125,-1.59375 L 26.84375,22.53125 27.25,21.6875 C 27.802515,20.506803 27.790034,20.418123 26.9375,20 26.601784,19.835348 26.327717,19.729646 26.1875,19.71875 z M 29.25,19.9375 c -0.431271,0 -1.122723,0.500134 -1.46875,1.0625 -0.542399,0.881524 -0.663017,1.411884 -0.5,2.25 0.191202,0.983022 0.401079,1.223442 1.125,1.40625 0.340523,0.08599 0.858207,0.272165 1.15625,0.40625 0.498995,0.224488 0.54013,0.291565 0.625,0.875 0.0507,0.348474 0.226598,0.84089 0.375,1.09375 0.148402,0.25286 0.351811,0.757596 0.46875,1.09375 0.116939,0.336152 0.50066,0.965768 0.84375,1.40625 0.343086,0.440481 0.706596,0.78125 0.8125,0.78125 0.508439,0 0.482844,-0.979934 -0.0625,-2.4375 -0.201531,-0.538615 -0.25,-1.030236 -0.25,-2.125 l 0,-1.4375 0.59375,-0.625 c 0.325105,-0.344176 0.59375,-0.67841 0.59375,-0.75 0,-0.380597 -0.515173,-0.892798 -1.0625,-1.09375 -0.327607,-0.120277 -0.72564,-0.344057 -0.90625,-0.5 C 31.166849,20.975164 29.446357,19.9375 29.25,19.9375 z m -1.125,12.53125 c -0.429254,0.04345 -0.871579,0.0625 -1.3125,0.0625 -0.22046,0 -0.438574,-0.02026 -0.65625,-0.03125 0.639063,-0.0026 1.29531,-0.0023 1.96875,-0.03125 z"
     id="path7"
     style="fill:#000000;stroke:none" />
</svg>
