<?xml version="1.0" encoding="UTF-8" standalone="no"?>
<!-- Created with Inkscape (http://www.inkscape.org/) -->

<svg
   xmlns:dc="http://purl.org/dc/elements/1.1/"
   xmlns:cc="http://creativecommons.org/ns#"
   xmlns:rdf="http://www.w3.org/1999/02/22-rdf-syntax-ns#"
   xmlns:svg="http://www.w3.org/2000/svg"
   xmlns="http://www.w3.org/2000/svg"
   version="1.1"
   width="88"
   height="88"
   id="svg2">
  <defs
     id="defs4" />
  <metadata
     id="metadata7">
    <rdf:RDF>
      <cc:Work
         rdf:about="">
        <dc:format>image/svg+xml</dc:format>
        <dc:type
           rdf:resource="http://purl.org/dc/dcmitype/StillImage" />
        <dc:title></dc:title>
      </cc:Work>
    </rdf:RDF>
  </metadata>
  <path
     d="M 28.09375,2 C 28.037413,2 28,2.0374125 28,2.09375 l 0,13.8125 C 28,15.962587 28.037413,16 28.09375,16 l 13.8125,0 C 41.962587,16 42,15.962587 42,15.90625 L 42,2.09375 C 42,2.0374125 41.962587,2 41.90625,2 l -13.8125,0 z m 36,0 C 64.037413,2 64,2.0374125 64,2.09375 l 0,13.8125 C 64,15.962587 64.037413,16 64.09375,16 l 13.8125,0 C 77.962587,16 78,15.962587 78,15.90625 L 78,2.09375 C 78,2.0374125 77.962587,2 77.90625,2 l -13.8125,0 z m -54,18 C 10.037413,20 10,20.037413 10,20.09375 l 0,13.8125 C 10,33.962587 10.037413,34 10.09375,34 l 13.8125,0 C 23.962587,34 24,33.962587 24,33.90625 l 0,-13.8125 C 24,20.037413 23.962587,20 23.90625,20 l -13.8125,0 z m 18,0 C 28.037413,20 28,20.037413 28,20.09375 l 0,13.8125 C 28,33.962587 28.037413,34 28.09375,34 l 13.8125,0 C 41.962587,34 42,33.962587 42,33.90625 l 0,-13.8125 C 42,20.037413 41.962587,20 41.90625,20 l -13.8125,0 z m 18,0 C 46.037413,20 46,20.037413 46,20.09375 l 0,13.8125 C 46,33.962587 46.037413,34 46.09375,34 l 13.8125,0 C 59.962587,34 60,33.962587 60,33.90625 l 0,-13.8125 C 60,20.037413 59.962587,20 59.90625,20 l -13.8125,0 z m -36,18 C 10.037413,38 10,38.037413 10,38.09375 l 0,13.8125 C 10,51.962587 10.037413,52 10.09375,52 l 13.8125,0 C 23.962587,52 24,51.962587 24,51.90625 l 0,-13.8125 C 24,38.037413 23.962587,38 23.90625,38 l -13.8125,0 z m 18,0 C 28.037413,38 28,38.037413 28,38.09375 l 0,13.8125 C 28,51.962587 28.037413,52 28.09375,52 l 13.8125,0 C 41.962587,52 42,51.962587 42,51.90625 l 0,-13.8125 C 42,38.037413 41.962587,38 41.90625,38 l -13.8125,0 z m 18,0 C 46.037413,38 46,38.037413 46,38.09375 l 0,13.8125 C 46,51.962587 46.037413,52 46.09375,52 l 13.8125,0 C 59.962587,52 60,51.962587 60,51.90625 l 0,-13.8125 C 60,38.037413 59.962587,38 59.90625,38 l -13.8125,0 z m 18,0 C 64.037413,38 64,38.037413 64,38.09375 l 0,13.8125 C 64,51.962587 64.037413,52 64.09375,52 l 13.8125,0 C 77.962587,52 78,51.962587 78,51.90625 l 0,-13.8125 C 78,38.037413 77.962587,38 77.90625,38 l -13.8125,0 z m -54,18 C 10.037413,56 10,56.037413 10,56.09375 l 0,13.8125 C 10,69.962587 10.037413,70 10.09375,70 l 13.8125,0 C 23.962587,70 24,69.962587 24,69.90625 l 0,-13.8125 C 24,56.037413 23.962587,56 23.90625,56 l -13.8125,0 z m 18,0 C 28.037413,56 28,56.037413 28,56.09375 l 0,13.8125 C 28,69.962587 28.037413,70 28.09375,70 l 13.8125,0 C 41.962587,70 42,69.962587 42,69.90625 l 0,-13.8125 C 42,56.037413 41.962587,56 41.90625,56 l -13.8125,0 z m 18,0 C 46.037413,56 46,56.037413 46,56.09375 l 0,13.8125 C 46,69.962587 46.037413,70 46.09375,70 l 13.8125,0 C 59.962587,70 60,69.962587 60,69.90625 l 0,-13.8125 C 60,56.037413 59.962587,56 59.90625,56 l -13.8125,0 z m 18,0 C 64.037413,56 64,56.037413 64,56.09375 l 0,13.8125 C 64,69.962587 64.037413,70 64.09375,70 l 13.8125,0 C 77.962587,70 78,69.962587 78,69.90625 l 0,-13.8125 C 78,56.037413 77.962587,56 77.90625,56 l -13.8125,0 z m -36,18 C 28.037413,74 28,74.037413 28,74.09375 l 0,13.8125 C 28,87.962587 28.037413,88 28.09375,88 l 13.8125,0 C 41.962587,88 42,87.962587 42,87.90625 l 0,-13.8125 C 42,74.037413 41.962587,74 41.90625,74 l -13.8125,0 z m 18,0 C 46.037413,74 46,74.037413 46,74.09375 l 0,13.8125 C 46,87.962587 46.037413,88 46.09375,88 l 13.8125,0 C 59.962587,88 60,87.962587 60,87.90625 l 0,-13.8125 C 60,74.037413 59.962587,74 59.90625,74 l -13.8125,0 z"
     id="rect2987"
     style="color:#000000;fill:#000000;fill-opacity:1;fill-rule:nonzero;stroke:none;stroke-width:1;marker:none;visibility:visible;display:inline;overflow:visible;enable-background:accumulate" />
</svg>
