<?xml version="1.0" encoding="UTF-8" standalone="no"?>
<!-- Created with Inkscape (http://www.inkscape.org/) -->

<svg
   xmlns:dc="http://purl.org/dc/elements/1.1/"
   xmlns:cc="http://creativecommons.org/ns#"
   xmlns:rdf="http://www.w3.org/1999/02/22-rdf-syntax-ns#"
   xmlns:svg="http://www.w3.org/2000/svg"
   xmlns="http://www.w3.org/2000/svg"
   version="1.1"
   width="78"
   height="78"
   id="svg2">
  <defs
     id="defs4" />
  <metadata
     id="metadata7">
    <rdf:RDF>
      <cc:Work
         rdf:about="">
        <dc:format>image/svg+xml</dc:format>
        <dc:type
           rdf:resource="http://purl.org/dc/dcmitype/StillImage" />
        <dc:title></dc:title>
      </cc:Work>
    </rdf:RDF>
  </metadata>
  <path
     d="M 16.09375,0 C 16.037413,0 16,0.03741252 16,0.09375 l 0,13.8125 C 16,13.962587 16.037413,14 16.09375,14 l 13.8125,0 C 29.962587,14 30,13.962587 30,13.90625 L 30,0.09375 C 30,0.03741252 29.962587,0 29.90625,0 l -13.8125,0 z m 16,0 C 32.037413,0 32,0.03741252 32,0.09375 l 0,13.8125 C 32,13.962587 32.037413,14 32.09375,14 l 13.8125,0 C 45.962587,14 46,13.962587 46,13.90625 L 46,0.09375 C 46,0.03741252 45.962587,0 45.90625,0 l -13.8125,0 z m 32,0 C 64.037413,0 64,0.03741252 64,0.09375 l 0,13.8125 C 64,13.962587 64.037413,14 64.09375,14 l 13.8125,0 C 77.962587,14 78,13.962587 78,13.90625 L 78,0.09375 C 78,0.03741252 77.962587,0 77.90625,0 l -13.8125,0 z m -64,16 C 0.03741252,16 0,16.037413 0,16.09375 l 0,13.8125 C 0,29.962587 0.03741252,30 0.09375,30 l 13.8125,0 C 13.962587,30 14,29.962587 14,29.90625 l 0,-13.8125 C 14,16.037413 13.962587,16 13.90625,16 l -13.8125,0 z m 16,0 C 16.037413,16 16,16.037413 16,16.09375 l 0,13.8125 C 16,29.962587 16.037413,30 16.09375,30 l 13.8125,0 C 29.962587,30 30,29.962587 30,29.90625 l 0,-13.8125 C 30,16.037413 29.962587,16 29.90625,16 l -13.8125,0 z m 16,0 C 32.037413,16 32,16.037413 32,16.09375 l 0,13.8125 C 32,29.962587 32.037413,30 32.09375,30 l 13.8125,0 C 45.962587,30 46,29.962587 46,29.90625 l 0,-13.8125 C 46,16.037413 45.962587,16 45.90625,16 l -13.8125,0 z m 16,0 C 48.037413,16 48,16.037413 48,16.09375 l 0,13.8125 C 48,29.962587 48.037413,30 48.09375,30 l 13.8125,0 C 61.962587,30 62,29.962587 62,29.90625 l 0,-13.8125 C 62,16.037413 61.962587,16 61.90625,16 l -13.8125,0 z m -48,16 C 0.03741252,32 0,32.037413 0,32.09375 l 0,13.8125 C 0,45.962587 0.03741252,46 0.09375,46 l 13.8125,0 C 13.962587,46 14,45.962587 14,45.90625 l 0,-13.8125 C 14,32.037413 13.962587,32 13.90625,32 l -13.8125,0 z m 16,0 C 16.037413,32 16,32.037413 16,32.09375 l 0,13.8125 C 16,45.962587 16.037413,46 16.09375,46 l 13.8125,0 C 29.962587,46 30,45.962587 30,45.90625 l 0,-13.8125 C 30,32.037413 29.962587,32 29.90625,32 l -13.8125,0 z m 16,0 C 32.037413,32 32,32.037413 32,32.09375 l 0,13.8125 C 32,45.962587 32.037413,46 32.09375,46 l 13.8125,0 C 45.962587,46 46,45.962587 46,45.90625 l 0,-13.8125 C 46,32.037413 45.962587,32 45.90625,32 l -13.8125,0 z m 16,0 C 48.037413,32 48,32.037413 48,32.09375 l 0,13.8125 C 48,45.962587 48.037413,46 48.09375,46 l 13.8125,0 C 61.962587,46 62,45.962587 62,45.90625 l 0,-13.8125 C 62,32.037413 61.962587,32 61.90625,32 l -13.8125,0 z m -32,16 C 16.037413,48 16,48.037413 16,48.09375 l 0,13.8125 C 16,61.962587 16.037413,62 16.09375,62 l 13.8125,0 C 29.962587,62 30,61.962587 30,61.90625 l 0,-13.8125 C 30,48.037413 29.962587,48 29.90625,48 l -13.8125,0 z m 16,0 C 32.037413,48 32,48.037413 32,48.09375 l 0,13.8125 C 32,61.962587 32.037413,62 32.09375,62 l 13.8125,0 C 45.962587,62 46,61.962587 46,61.90625 l 0,-13.8125 C 46,48.037413 45.962587,48 45.90625,48 l -13.8125,0 z m 16,0 C 48.037413,48 48,48.037413 48,48.09375 l 0,13.8125 C 48,61.962587 48.037413,62 48.09375,62 l 13.8125,0 C 61.962587,62 62,61.962587 62,61.90625 l 0,-13.8125 C 62,48.037413 61.962587,48 61.90625,48 l -13.8125,0 z m 16,0 C 64.037413,48 64,48.037413 64,48.09375 l 0,13.8125 C 64,61.962587 64.037413,62 64.09375,62 l 13.8125,0 C 77.962587,62 78,61.962587 78,61.90625 l 0,-13.8125 C 78,48.037413 77.962587,48 77.90625,48 l -13.8125,0 z m -64,16 C 0.03741252,64 0,64.037413 0,64.09375 l 0,13.8125 C 0,77.962587 0.03741252,78 0.09375,78 l 13.8125,0 C 13.962587,78 14,77.962587 14,77.90625 l 0,-13.8125 C 14,64.037413 13.962587,64 13.90625,64 l -13.8125,0 z m 32,0 C 32.037413,64 32,64.037413 32,64.09375 l 0,13.8125 C 32,77.962587 32.037413,78 32.09375,78 l 13.8125,0 C 45.962587,78 46,77.962587 46,77.90625 l 0,-13.8125 C 46,64.037413 45.962587,64 45.90625,64 l -13.8125,0 z m 16,0 C 48.037413,64 48,64.037413 48,64.09375 l 0,13.8125 C 48,77.962587 48.037413,78 48.09375,78 l 13.8125,0 C 61.962587,78 62,77.962587 62,77.90625 l 0,-13.8125 C 62,64.037413 61.962587,64 61.90625,64 l -13.8125,0 z"
     id="rect2983"
     style="color:#000000;fill:#000000;fill-opacity:1;fill-rule:nonzero;stroke:none;stroke-width:5;marker:none;visibility:visible;display:inline;overflow:visible;enable-background:accumulate" />
</svg>
