<?xml version="1.0" encoding="UTF-8" standalone="no"?>
<!-- Created with Inkscape (http://www.inkscape.org/) -->

<svg
   xmlns:dc="http://purl.org/dc/elements/1.1/"
   xmlns:cc="http://creativecommons.org/ns#"
   xmlns:rdf="http://www.w3.org/1999/02/22-rdf-syntax-ns#"
   xmlns:svg="http://www.w3.org/2000/svg"
   xmlns="http://www.w3.org/2000/svg"
   version="1.1"
   width="88"
   height="88"
   id="svg2">
  <defs
     id="defs4" />
  <metadata
     id="metadata7">
    <rdf:RDF>
      <cc:Work
         rdf:about="">
        <dc:format>image/svg+xml</dc:format>
        <dc:type
           rdf:resource="http://purl.org/dc/dcmitype/StillImage" />
        <dc:title></dc:title>
      </cc:Work>
    </rdf:RDF>
  </metadata>
  <path
     d="m 79.71875,2.6875 c -3.313708,0 -6,2.686292 -6,6 0,2.125753 1.113826,3.996676 2.78125,5.0625 l -9.90625,59.4375 c -0.279935,0.01498 -0.544048,0.04169 -0.8125,0.09375 L 41.3125,42.6875 c 0.07211,-0.371865 0.125,-0.763307 0.125,-1.15625 0,-3.313708 -2.686292,-6 -6,-6 -3.085331,0 -5.633101,2.316796 -5.96875,5.3125 l -18.34375,10.5 c -0.981854,-0.700898 -2.1704421,-1.125 -3.46875,-1.125 -3.313708,0 -6,2.686292 -6,6 0,3.313708 2.686292,6 6,6 3.313708,0 6,-2.686292 6,-6 0,-0.196237 -0.01284,-0.371092 -0.03125,-0.5625 l 17.46875,-10 c 1.093239,1.151175 2.630855,1.875 4.34375,1.875 1.020866,0 2.002179,-0.237791 2.84375,-0.6875 L 61.75,76.15625 c -0.517838,0.887114 -0.84375,1.898708 -0.84375,3 0,3.313708 2.686292,6 6,6 3.313708,0 6,-2.686292 6,-6 0,-1.553301 -0.594058,-2.965727 -1.5625,-4.03125 l 10.125,-60.6875 c 2.457811,-0.750326 4.25,-3.046648 4.25,-5.75 0,-3.313708 -2.686292,-6 -6,-6 z"
     id="path3778"
     style="font-size:medium;font-style:normal;font-variant:normal;font-weight:normal;font-stretch:normal;text-indent:0;text-align:start;text-decoration:none;line-height:normal;letter-spacing:normal;word-spacing:normal;text-transform:none;direction:ltr;block-progression:tb;writing-mode:lr-tb;text-anchor:start;baseline-shift:baseline;color:#000000;fill:#000000;fill-opacity:1;stroke:none;stroke-width:5;marker:none;visibility:visible;display:inline;overflow:visible;enable-background:accumulate;font-family:Sans;-inkscape-font-specification:Sans" />
</svg>
