<?xml version="1.0" encoding="UTF-8" standalone="no"?>
<!-- Created with Inkscape (http://www.inkscape.org/) -->

<svg
   xmlns:dc="http://purl.org/dc/elements/1.1/"
   xmlns:cc="http://creativecommons.org/ns#"
   xmlns:rdf="http://www.w3.org/1999/02/22-rdf-syntax-ns#"
   xmlns:svg="http://www.w3.org/2000/svg"
   xmlns="http://www.w3.org/2000/svg"
   version="1.1"
   width="88"
   height="88"
   id="svg2">
  <defs
     id="defs4" />
  <metadata
     id="metadata7">
    <rdf:RDF>
      <cc:Work
         rdf:about="">
        <dc:format>image/svg+xml</dc:format>
        <dc:type
           rdf:resource="http://purl.org/dc/dcmitype/StillImage" />
        <dc:title></dc:title>
      </cc:Work>
    </rdf:RDF>
  </metadata>
  <path
     d="m 47.9375,3.5625 c -2.831271,0 -5.212728,1.9558567 -5.84375,4.59375 L 19.375,19.5 c -0.643277,-0.235535 -1.337626,-0.375 -2.0625,-0.375 -3.313708,0 -6,2.686292 -6,6 0,1.378517 0.468449,2.67437 1.25,3.6875 L 6.625,61.46875 c -2.5178339,0.712631 -4.34375,3.003958 -4.34375,5.75 0,3.313708 2.686292,6 6,6 1.5134724,0 2.88195,-0.544173 3.9375,-1.46875 l 33.59375,9.15625 c 0.618998,2.654597 3.000631,4.625 5.84375,4.625 3.313708,0 6,-2.686292 6,-6 0,-0.769747 -0.142155,-1.51127 -0.40625,-2.1875 l 21.21875,-27.3125 c 0.132585,0.0088 0.27145,0.03125 0.40625,0.03125 3.313708,0 6,-2.686292 6,-6 0,-3.313708 -2.686292,-6 -6,-6 -0.251327,0 -0.50679,0.03249 -0.75,0.0625 L 53.8125,10.75 c 0.07993,-0.390586 0.125,-0.7732865 0.125,-1.1875 0,-3.313708 -2.686292,-6 -6,-6 z m -4.75,9.65625 c 1.097158,1.422254 2.814809,2.34375 4.75,2.34375 1.010337,0 1.945921,-0.277662 2.78125,-0.71875 L 73.8125,40.8125 c -0.608718,0.938666 -0.9375,2.04792 -0.9375,3.25 0,1.329434 0.424455,2.567988 1.15625,3.5625 L 53.625,73.875 c -0.617276,-0.214568 -1.278394,-0.34375 -1.96875,-0.34375 -1.990859,0 -3.752315,0.975979 -4.84375,2.46875 L 14.28125,67.125 C 14.2486,65.078957 13.184486,63.276985 11.59375,62.21875 L 17.25,31.125 c 0.02169,2.31e-4 0.04076,0 0.0625,0 3.313708,0 6,-2.686292 6,-6 0,-0.646443 -0.09207,-1.260348 -0.28125,-1.84375 L 43.1875,13.21875 z"
     id="path3778"
     style="font-size:medium;font-style:normal;font-variant:normal;font-weight:normal;font-stretch:normal;text-indent:0;text-align:start;text-decoration:none;line-height:normal;letter-spacing:normal;word-spacing:normal;text-transform:none;direction:ltr;block-progression:tb;writing-mode:lr-tb;text-anchor:start;baseline-shift:baseline;color:#000000;fill:#000000;fill-opacity:1;stroke:none;stroke-width:5;marker:none;visibility:visible;display:inline;overflow:visible;enable-background:accumulate;font-family:Sans;-inkscape-font-specification:Sans" />
</svg>
