<?xml version="1.0" encoding="UTF-8" standalone="no"?>
<!-- Created with Inkscape (http://www.inkscape.org/) -->

<svg
   xmlns:dc="http://purl.org/dc/elements/1.1/"
   xmlns:cc="http://creativecommons.org/ns#"
   xmlns:rdf="http://www.w3.org/1999/02/22-rdf-syntax-ns#"
   xmlns:svg="http://www.w3.org/2000/svg"
   xmlns="http://www.w3.org/2000/svg"
   xmlns:sodipodi="http://sodipodi.sourceforge.net/DTD/sodipodi-0.dtd"
   xmlns:inkscape="http://www.inkscape.org/namespaces/inkscape"
   version="1.1"
   width="88"
   height="78"
   id="svg2"
   inkscape:version="0.48.4 r9939"
   sodipodi:docname="contribute.svg">
  <sodipodi:namedview
     pagecolor="#ffffff"
     bordercolor="#666666"
     borderopacity="1"
     objecttolerance="10"
     gridtolerance="10"
     guidetolerance="10"
     inkscape:pageopacity="0"
     inkscape:pageshadow="2"
     inkscape:window-width="1254"
     inkscape:window-height="691"
     id="namedview16"
     showgrid="true"
     inkscape:zoom="4.9166667"
     inkscape:cx="32.952423"
     inkscape:cy="46.329104"
     inkscape:window-x="176"
     inkscape:window-y="145"
     inkscape:window-maximized="0"
     inkscape:current-layer="svg2">
    <inkscape:grid
       type="xygrid"
       id="grid2986"
       empspacing="2"
       visible="true"
       enabled="true"
       snapvisiblegridlinesonly="true" />
  </sodipodi:namedview>
  <defs
     id="defs4" />
  <metadata
     id="metadata7">
    <rdf:RDF>
      <cc:Work
         rdf:about="">
        <dc:format>image/svg+xml</dc:format>
        <dc:type
           rdf:resource="http://purl.org/dc/dcmitype/StillImage" />
        <dc:title></dc:title>
      </cc:Work>
    </rdf:RDF>
  </metadata>
  <path
     style="fill:#000000"
     d="M 50.569447,75.555982 C 49.96213,75.3125 47.261175,73.216398 44.567323,70.897981 c -5.44918,-4.689741 -5.603831,-4.751054 -7.345546,-2.912238 -4.057975,4.284202 -9.392762,-0.976671 -5.866879,-5.785595 5.235064,-7.140065 12.523684,-7.936427 11.445763,-1.250575 -0.635374,3.940912 10.459448,12.164174 13.005218,9.639217 2.553301,-2.532427 1.964767,-3.453575 -7.491289,-11.72516 -7.185969,-6.285843 -8.53144,-8.067914 -6.57341,-8.706417 0.317894,-0.103661 4.196086,2.985777 8.618211,6.865429 8.868399,7.780485 10.543893,8.558301 12.396067,5.754635 1.468541,-2.222956 0.59514,-3.441358 -7.656024,-10.680285 -7.540792,-6.615699 -9.33312,-8.891827 -6.973054,-8.855272 0.505816,0.0079 4.230459,2.956518 8.276987,6.552629 8.068406,7.170316 9.009828,7.79658 10.982059,7.305632 4.060264,-1.010732 3.00852,-3.945619 -3.494807,-9.752256 -9.418155,-8.409198 -10.435763,-9.430023 -10.266954,-10.299405 0.361918,-1.863926 2.065343,-0.832748 9.769053,5.913751 8.484856,7.430587 9.629703,8.019256 11.666714,5.998898 1.713058,-1.699052 1.321349,-3.294335 -1.445188,-5.885682 -5.582725,-5.229202 -28.20865,-24.345465 -28.815188,-24.345465 -2.685564,0 -5.983246,9.415757 -5.996742,17.122297 -0.0088,5.040683 -6.013421,7.749941 -9.503807,4.288092 C 25.69691,36.568054 28.404815,20.815125 33.895785,13.39608 35.838002,10.771881 35.838002,10.771881 33.631755,8.73074 30.883174,6.187851 32.440649,4.832913 18.858718,21.582656 6.8787904,36.356748 6.6238408,36.755152 8.2280125,38.195039 c 1.3092133,1.175136 1.5090661,1.125058 3.8378615,-0.961671 3.492022,-3.129038 7.813645,-1.889032 7.813645,2.241974 0,1.677929 -6.563396,9.791028 -8.942409,11.053828 C 7.147849,52.54054 3.6274748,48.750566 5.4866692,44.661316 6.441495,42.5612 6.441495,42.5612 4.8260908,41.20035 2.6701853,39.384174 1.8413276,37.68753 2.21199,35.849368 2.5501762,34.172264 27.62973,2.93382 29.081642,2.381223 c 2.241961,-0.853286 3.907564,-0.302208 6.877513,2.275479 3.36689,2.922202 3.396298,2.929198 7.4279,1.76676 8.163859,-2.353896 16.498511,1.629871 29.514113,14.107047 14.105726,13.522206 15.295789,15.846747 10.635182,20.773568 -2.253709,2.382446 -2.589839,3.036389 -2.816992,5.480507 -0.28786,3.097305 -1.419685,4.94927 -4.131678,6.760512 -0.985056,0.657887 -2.107405,1.947922 -2.494116,2.866746 -0.861028,2.045821 -2.516777,3.878385 -4.366924,4.833256 -0.765251,0.394954 -1.886058,1.731646 -2.490685,2.970418 -0.71514,1.465211 -1.917543,2.765292 -3.440666,3.720177 -1.549656,0.971527 -2.448659,1.952424 -2.658699,2.900915 -0.825403,3.727324 -6.604191,6.308181 -10.567143,4.719374 z M 20.643915,64.360847 c -2.433996,-2.414099 3.55287,-12.688827 8.487952,-14.567111 6.170154,-2.348354 7.93049,3.32766 2.776764,8.953379 -6.885603,7.516207 -8.52356,8.332481 -11.264716,5.613732 z m -9.01422,-4.715378 c -3.1321706,-2.175922 -2.2852099,-4.294844 4.728732,-11.830335 5.099276,-5.478449 6.759933,-6.37735 9.04195,-4.894339 3.737269,2.428734 3.059587,4.493026 -3.827683,11.659528 -6.020436,6.264526 -7.287442,6.909966 -9.942999,5.065146 z"
     id="path3024"
     inkscape:connector-curvature="0" />
</svg>
