<?xml version="1.0" encoding="UTF-8" standalone="no"?>
<!-- Created with Inkscape (http://www.inkscape.org/) -->

<svg
   xmlns:dc="http://purl.org/dc/elements/1.1/"
   xmlns:cc="http://creativecommons.org/ns#"
   xmlns:rdf="http://www.w3.org/1999/02/22-rdf-syntax-ns#"
   xmlns:svg="http://www.w3.org/2000/svg"
   xmlns="http://www.w3.org/2000/svg"
   xmlns:sodipodi="http://sodipodi.sourceforge.net/DTD/sodipodi-0.dtd"
   xmlns:inkscape="http://www.inkscape.org/namespaces/inkscape"
   version="1.1"
   width="96"
   height="64"
   id="svg2"
   inkscape:version="0.48.4 r9939"
   sodipodi:docname="layer-vector.svg">
  <sodipodi:namedview
     pagecolor="#ffffff"
     bordercolor="#666666"
     borderopacity="1"
     objecttolerance="10"
     gridtolerance="10"
     guidetolerance="10"
     inkscape:pageopacity="0"
     inkscape:pageshadow="2"
     inkscape:window-width="1460"
     inkscape:window-height="698"
     id="namedview16"
     showgrid="true"
     inkscape:zoom="6.9532167"
     inkscape:cx="54.831034"
     inkscape:cy="34.693686"
     inkscape:window-x="307"
     inkscape:window-y="297"
     inkscape:window-maximized="0"
     inkscape:current-layer="svg2">
    <inkscape:grid
       type="xygrid"
       id="grid2986"
       empspacing="2"
       visible="true"
       enabled="true"
       snapvisiblegridlinesonly="true" />
  </sodipodi:namedview>
  <defs
     id="defs4" />
  <metadata
     id="metadata7">
    <rdf:RDF>
      <cc:Work
         rdf:about="">
        <dc:format>image/svg+xml</dc:format>
        <dc:type
           rdf:resource="http://purl.org/dc/dcmitype/StillImage" />
        <dc:title />
      </cc:Work>
    </rdf:RDF>
  </metadata>
  <path
     id="path3879-6-0"
     style="fill:#000000;fill-opacity:1;stroke:none"
     d="m 54,6 -8,10 6,16 8,8 4,-2 L 56,30 50,18 58,8 54,6 z M 43,8 c -1.656854,0 -3,0.895431 -3,2 0,1.104569 1.343146,2 3,2 1.656854,0 3,-0.895431 3,-2 C 46,8.895431 44.656854,8 43,8 z M 28,12 4,24 48,46 52,44 32,20 28,12 z m 10.0625,0.5 c -1.656854,0 -3,0.895431 -3,2 0,1.104569 1.343146,2 3,2 1.656854,0 3,-0.895431 3,-2 0,-1.104569 -1.343146,-2 -3,-2 z m 25.90625,2.5625 c -1.656854,0 -3,0.895431 -3,2 0,1.104569 1.343146,2 3,2 1.656854,0 3,-0.895431 3,-2 0,-1.104569 -1.343146,-2 -3,-2 z M 80,18 78,30 92,24 88,22 80,18 z m -12.5625,6.25 c -1.656854,0 -3,0.895431 -3,2 0,1.104569 1.343146,2 3,2 1.656854,0 3,-0.895431 3,-2 0,-1.104569 -1.343146,-2 -3,-2 z m -0.71875,5.03125 c -1.656854,0 -3,0.895431 -3,2 0,1.104569 1.343146,2 3,2 1.656854,0 3,-0.895431 3,-2 0,-1.104569 -1.343146,-2 -3,-2 z M 12,34 4,38 48,60 92,38 84,34 48,52 12,34 z"
     inkscape:connector-curvature="0" />
</svg>
