<?xml version="1.0" encoding="UTF-8" standalone="no"?>
<!-- Generator: Adobe Illustrator 16.0.0, SVG Export Plug-In . SVG Version: 6.00 Build 0)  -->

<svg
   xmlns:dc="http://purl.org/dc/elements/1.1/"
   xmlns:cc="http://creativecommons.org/ns#"
   xmlns:rdf="http://www.w3.org/1999/02/22-rdf-syntax-ns#"
   xmlns:svg="http://www.w3.org/2000/svg"
   xmlns="http://www.w3.org/2000/svg"
   xmlns:sodipodi="http://sodipodi.sourceforge.net/DTD/sodipodi-0.dtd"
   xmlns:inkscape="http://www.inkscape.org/namespaces/inkscape"
   version="1.1"
   id="Capa_1"
   x="0px"
   y="0px"
   width="111.67px"
   height="111.67px"
   viewBox="0 0 111.67 111.67"
   style="enable-background:new 0 0 111.67 111.67;"
   xml:space="preserve"
   inkscape:version="0.48.4 r9939"
   sodipodi:docname="schema.svg"><metadata
     id="metadata41"><rdf:RDF><cc:Work
         rdf:about=""><dc:format>image/svg+xml</dc:format><dc:type
           rdf:resource="http://purl.org/dc/dcmitype/StillImage" /></cc:Work></rdf:RDF></metadata><defs
     id="defs39" /><sodipodi:namedview
     pagecolor="#ffffff"
     bordercolor="#666666"
     borderopacity="1"
     objecttolerance="10"
     gridtolerance="10"
     guidetolerance="10"
     inkscape:pageopacity="0"
     inkscape:pageshadow="2"
     inkscape:window-width="996"
     inkscape:window-height="767"
     id="namedview37"
     showgrid="true"
     inkscape:zoom="2.1133698"
     inkscape:cx="55.834999"
     inkscape:cy="93.689236"
     inkscape:window-x="78"
     inkscape:window-y="27"
     inkscape:window-maximized="0"
     inkscape:current-layer="Capa_1"><inkscape:grid
       type="xygrid"
       id="grid3018"
       empspacing="2"
       visible="true"
       enabled="true"
       snapvisiblegridlinesonly="true" /></sodipodi:namedview><g
     id="g3"
     transform="matrix(0.98843688,0,0,0.98843688,3.7854237,4.1002857)"><path
       d="m 67.684456,26.40361 -27.311487,0 0,-27.31148704 27.311487,0 z m -30.200854,78.27563 36.261178,0 L 55.61372,75.131516 z M 90.923705,75.61088 c -7.854407,0 -14.244353,6.389946 -14.244353,14.244353 0,7.854406 6.389946,14.244357 14.244353,14.244357 7.854407,0 14.244355,-6.389951 14.244355,-14.244357 0,-7.854407 -6.389948,-14.244353 -14.244355,-14.244353 z m -71.494879,-15.557188 33.406657,0 0,11.783494 4.708877,0 0,-11.783494 31.071995,0 0,11.783494 4.708877,0 0,-14.282966 -0.0019,0 0,-2.209405 -35.778989,0 0,-24.277533 -4.708877,0 0,24.277533 -38.100465,0 0,2.209405 -0.01507,0 0,14.282966 4.708877,0 z M 8.5466117,75.054291 0,89.855233 8.5466117,104.659 l 17.0913393,0 8.546612,-14.803767 -8.546612,-14.801884 -17.0913393,0 z"
       id="path5"
       inkscape:connector-curvature="0"
       sodipodi:nodetypes="cccccccccsssssccccccccccccccccccccccccccccc" /></g><g
     id="g7" /><g
     id="g9" /><g
     id="g11" /><g
     id="g13" /><g
     id="g15" /><g
     id="g17" /><g
     id="g19" /><g
     id="g21" /><g
     id="g23" /><g
     id="g25" /><g
     id="g27" /><g
     id="g29" /><g
     id="g31" /><g
     id="g33" /><g
     id="g35" /></svg>