<?xml version="1.0" encoding="UTF-8" standalone="no"?>
<!-- Created with Inkscape (http://www.inkscape.org/) -->

<svg
   xmlns:dc="http://purl.org/dc/elements/1.1/"
   xmlns:cc="http://creativecommons.org/ns#"
   xmlns:rdf="http://www.w3.org/1999/02/22-rdf-syntax-ns#"
   xmlns:svg="http://www.w3.org/2000/svg"
   xmlns="http://www.w3.org/2000/svg"
   xmlns:sodipodi="http://sodipodi.sourceforge.net/DTD/sodipodi-0.dtd"
   xmlns:inkscape="http://www.inkscape.org/namespaces/inkscape"
   version="1.1"
   width="53.88343"
   height="39.939999"
   id="svg3953"
   inkscape:version="0.48.4 r9939"
   sodipodi:docname="source-tilewms.svg">
  <sodipodi:namedview
     pagecolor="#ffffff"
     bordercolor="#666666"
     borderopacity="1"
     objecttolerance="10"
     gridtolerance="10"
     guidetolerance="10"
     inkscape:pageopacity="0"
     inkscape:pageshadow="2"
     inkscape:window-width="1647"
     inkscape:window-height="710"
     id="namedview7"
     showgrid="true"
     inkscape:zoom="5.9819675"
     inkscape:cx="42.170948"
     inkscape:cy="11.616422"
     inkscape:window-x="387"
     inkscape:window-y="285"
     inkscape:window-maximized="0"
     inkscape:current-layer="svg3953">
    <inkscape:grid
       type="xygrid"
       id="grid2984"
       empspacing="2"
       visible="true"
       enabled="true"
       snapvisiblegridlinesonly="true" />
  </sodipodi:namedview>
  <defs
     id="defs3955" />
  <metadata
     id="metadata3958">
    <rdf:RDF>
      <cc:Work
         rdf:about="">
        <dc:format>image/svg+xml</dc:format>
        <dc:type
           rdf:resource="http://purl.org/dc/dcmitype/StillImage" />
        <dc:title></dc:title>
      </cc:Work>
    </rdf:RDF>
  </metadata>
  <path
     style="fill:#000000"
     d="m 32.615234,37.656011 c -3.457971,-0.406937 -5.88452,-1.270876 -8.536961,-3.039466 -1.390376,-0.927073 -3.160284,-2.607699 -4.203909,-3.991846 -0.989267,-1.312053 -2.126257,-3.350236 -2.021377,-3.623549 0.04744,-0.123619 0.228846,-0.153365 0.935302,-0.153365 0.872907,0 0.877159,0.0012 1.051886,0.29699 0.09649,0.163343 0.263768,0.31854 0.371731,0.34488 0.107964,0.02634 1.271389,0.03552 2.585391,0.0204 l 2.389094,-0.0275 0.0035,-0.292969 0.0035,-0.292969 0.835355,-0.02794 0.835354,-0.02794 0.141208,0.320907 0.141208,0.320905 2.982346,0.0258 2.982347,0.02579 0.09382,-0.318764 0.09382,-0.318765 0.829119,0 0.829119,0 0.05071,0.292969 0.05071,0.292969 2.802461,0.0259 c 2.594429,0.02398 2.809145,0.01311 2.892507,-0.146484 0.106843,-0.204545 0.634728,-2.694649 0.791828,-3.735158 0.06068,-0.401907 0.137403,-1.203909 0.170491,-1.782227 l 0.06016,-1.051488 -0.42996,-0.0015 c -0.656017,-0.0023 -0.686477,-0.04809 -0.653896,-0.983432 l 0.02862,-0.821715 0.524901,-0.02994 0.524901,-0.02994 -0.06898,-1.093105 C 41.594791,16.141928 41.169354,13.600778 40.827685,12.61389 l -0.126617,-0.365725 -2.821245,0 -2.821245,0 -0.05047,0.292969 -0.05047,0.292968 -0.765411,0.02869 c -0.835187,0.0313 -1.039864,-0.05358 -1.039864,-0.431271 l 0,-0.232183 -3.00972,0 -3.009721,0 -0.139693,0.317383 -0.139694,0.317382 -0.830079,0 -0.830078,0 0.0144,-0.317382 0.0144,-0.317383 -2.582418,0 -2.582418,0 -0.166356,0.295698 c -0.203232,0.361243 -0.358046,0.405416 -1.290554,0.368229 l -0.731271,-0.02916 0.01325,-0.292968 c 0.01468,-0.324551 0.81321,-1.786104 1.581882,-2.8953086 2.001114,-2.8876338 5.181538,-5.342213 8.480972,-6.5454236 4.617428,-1.6838442 9.494627,-1.4325582 13.988557,0.720727 1.839341,0.8813276 3.324295,1.9402782 4.712613,3.3606584 2.797566,2.8621738 4.294127,5.6794258 5.02576,9.4609088 0.23962,1.238492 0.240738,5.190024 0.0018,6.412325 -0.53546,2.739337 -1.710835,5.450649 -3.251723,7.500956 -1.115118,1.483777 -2.970693,3.214702 -4.54388,4.23864 -0.881681,0.573857 -3.200298,1.748004 -3.792446,1.920491 -2.927354,0.852713 -5.483922,1.174698 -7.470703,0.940892 z m 0.514012,-5.070921 -0.02573,-3.24707 -2.148438,-0.02444 c -1.181641,-0.01344 -2.379192,6.84e-4 -2.661226,0.03145 -0.497118,0.05418 -0.510913,0.06388 -0.451349,0.317405 0.09861,0.419723 1.357874,2.99328 1.864185,3.809835 0.859262,1.385778 1.287165,1.9414 1.592557,2.067897 0.268296,0.111132 1.055999,0.245661 1.634689,0.279183 l 0.221043,0.0128 -0.02573,-3.24707 z m 3.34465,3.041625 c 0.310549,-0.11646 1.228117,-1.406648 2.023063,-2.844619 0.754584,-1.36496 1.632348,-3.286763 1.542332,-3.376826 -0.03697,-0.03699 -1.173187,-0.06725 -2.524933,-0.06725 l -2.457717,0 -0.02156,3.125 c -0.01186,1.71875 -0.0034,3.177014 0.01886,3.240588 0.04564,0.130516 1.005479,0.07854 1.41995,-0.07689 z m 4.682048,-1.419752 c 1.259723,-0.588083 2.703193,-1.578636 3.75096,-2.574022 0.93727,-0.890413 2.014971,-2.09307 2.014971,-2.248601 0,-0.152196 -4.736633,-0.125951 -4.858765,0.02692 -0.05364,0.06714 -0.261935,0.539551 -0.462883,1.049804 -0.20095,0.510254 -0.755706,1.679288 -1.232794,2.597852 C 39.890345,33.977482 39.5,34.777241 39.5,34.836161 c 0,0.121459 0.25779,0.02351 1.655944,-0.629198 z M 27.994046,34.096667 C 27.515613,33.343056 26.738719,31.76274 26.230762,30.509895 L 25.755634,29.33802 23.496958,29.31181 c -1.242272,-0.01442 -2.258677,0.0016 -2.258677,0.03557 0,0.111274 0.998411,1.245201 1.733906,1.969253 0.786533,0.774296 1.890695,1.636168 2.80711,2.191135 0.935614,0.566594 2.436063,1.266209 2.473667,1.153398 0.01883,-0.0565 -0.09768,-0.310516 -0.258918,-0.564492 z M 48.20602,27.360481 c 0.0784,-0.09399 0.353518,-0.648919 0.611382,-1.233166 0.544098,-1.232773 1.105668,-3.359052 1.196035,-4.528553 l 0.06225,-0.805664 -3.220272,0 -3.220273,0 -0.122934,1.391601 c -0.133748,1.51402 -0.497636,3.777326 -0.736779,4.582609 -0.08274,0.278603 -0.15043,0.564494 -0.15043,0.635311 0,0.103493 0.533608,0.12876 2.719239,0.12876 2.470347,0 2.732286,-0.01564 2.861781,-0.170898 z m 1.840855,-8.813434 c 0,-1.357052 -0.758851,-4.118193 -1.603647,-5.835004 l -0.252284,-0.512695 -2.793558,0 -2.79356,0 0.07028,0.268554 c 0.313814,1.199224 0.69419,3.416941 0.774673,4.516602 0.03341,0.456543 0.08578,1.082764 0.116359,1.391602 l 0.0556,0.561523 3.213069,0 3.213067,0 0,-0.390582 z m -23.9417,-9.0332456 c 0.598378,-1.4243006 1.215415,-2.7237058 1.70581,-3.5922284 0.266406,-0.47182 0.461328,-0.8809 0.433161,-0.909067 -0.156686,-0.1566866 -3.03875,1.4614286 -4.066559,2.2831412 -1.015643,0.8119846 -2.84165,2.7187408 -2.84165,2.9673108 0,0.04652 0.99923,0.07278 2.22051,0.05834 l 2.220509,-0.02625 0.328219,-0.7812496 z m 7.047169,-2.3925772 0,-3.2226544 -0.317383,0.0077 c -0.174561,0.0042 -0.625,0.06162 -1.000977,0.1275026 -0.65063,0.114011 -0.700618,0.142312 -1.036649,0.586904 -1.144158,1.5138012 -2.517391,4.0658244 -2.961387,5.5034626 l -0.06786,0.219726 2.692128,0 2.692128,0 0,-3.2226548 z m 6.933545,3.1982408 C 40.085596,10.196307 39.573658,9.0103804 39.106653,8.0512158 38.251235,6.2943076 36.810308,4.1303424 36.438213,4.0437914 c -0.115333,-0.02683 -0.473369,-0.05949 -0.795635,-0.07259 l -0.585937,-0.02381 -0.02128,3.0761708 c -0.0117,1.6918936 -0.0021,3.1311018 0.02135,3.1982408 0.0326,0.09335 0.629125,0.12207 2.535927,0.12207 1.371314,0 2.493276,-0.01099 2.49325,-0.02441 z m 6.749984,-0.146484 C 46.446589,9.4566484 44.417676,7.5314812 43.113281,6.6407386 41.977213,5.864943 39.570879,4.6740444 39.428023,4.8168994 c -0.02984,0.02984 0.06499,0.2344536 0.210729,0.4546886 0.58766,0.8880136 1.717237,3.2519388 2.295417,4.803736 l 0.10006,0.268555 2.447258,0 c 2.300999,0 2.441709,-0.01021 2.354386,-0.170898 z M 4.0507812,25.600745 c -0.680141,-0.07337 -0.911738,-0.154941 -1.22778,-0.432429 -0.648728,-0.569591 -0.627689,-0.391794 -0.627689,-5.304523 0,-3.101282 0.03329,-4.519434 0.109589,-4.667935 0.163961,-0.319139 0.585408,-0.747136 0.915802,-0.930034 0.269303,-0.149079 1.669493,-0.164523 17.3339838,-0.191194 12.58049,-0.02142 17.143263,1.95e-4 17.431641,0.08276 0.536362,0.153479 0.98571,0.514724 1.246019,1.001715 0.21554,0.403236 0.21925,0.47251 0.247099,4.614474 l 0.02827,4.205093 -0.276734,0.529727 c -0.19848,0.379937 -0.40516,0.609129 -0.730909,0.810524 l -0.454176,0.280795 -16.87549,0.01368 c -9.281518,0.0075 -16.9853528,0.0018 -17.1196298,-0.01266 z m 23.1215998,-5.764494 0.0259,-2.861143 -0.611834,0.02911 -0.611834,0.02911 -0.01248,2.783203 c -0.0069,1.530762 0.008,2.81824 0.03303,2.861062 0.02503,0.04282 0.29432,0.0648 0.598418,0.04883 l 0.552907,-0.02903 0.0259,-2.861144 z m 2.513166,0.02911 0,-2.832031 -0.585938,0 -0.585937,0 -0.026,2.733057 c -0.0143,1.503181 -0.0038,2.790791 0.02323,2.861354 0.0347,0.09042 0.215343,0.119641 0.611937,0.09897 l 0.562705,-0.02932 0,-2.832032 z m 2.490234,0 0,-2.880859 -0.585937,0 -0.585938,0 0,2.815755 c 0,1.548666 0.0293,2.845053 0.0651,2.880859 0.03581,0.03581 0.299478,0.0651 0.585937,0.0651 l 0.520833,0 0,-2.88086 z m 2.490235,0 0,-2.832031 -0.561524,-0.02929 -0.561523,-0.02929 0,2.890606 0,2.890607 0.561523,-0.02929 0.561524,-0.02929 0,-2.832032 z m -23.902091,1.966124 c 0.688866,-0.356226 1.096009,-0.992532 1.172115,-1.831847 0.04365,-0.481333 0.01154,-0.647871 -0.213588,-1.108024 -1.078338,-2.204044 -4.3785628,-1.259277 -4.1266668,1.181355 0.02959,0.286712 0.153579,0.698824 0.275529,0.915805 0.193758,0.344746 0.789234,0.823915 1.257592,1.011962 0.240694,0.09664 1.3411258,-0.01727 1.6350188,-0.169251 z m 7.007559,0.03904 c 0.477964,-0.229802 0.619267,-0.346633 0.948779,-0.784462 0.798352,-1.060786 0.403773,-2.585471 -0.828354,-3.200826 -1.194845,-0.596734 -2.671519,0.07039 -3.050231,1.378006 -0.18211,0.628793 -0.143517,1.060011 0.145253,1.622966 0.504412,0.98335 1.819605,1.44826 2.784553,0.984316 z"
     id="path3883"
     inkscape:connector-curvature="0" />
</svg>
