<?xml version="1.0" encoding="UTF-8" standalone="no"?>
<!-- Created with Inkscape (http://www.inkscape.org/) -->

<svg
   xmlns:dc="http://purl.org/dc/elements/1.1/"
   xmlns:cc="http://creativecommons.org/ns#"
   xmlns:rdf="http://www.w3.org/1999/02/22-rdf-syntax-ns#"
   xmlns:svg="http://www.w3.org/2000/svg"
   xmlns="http://www.w3.org/2000/svg"
   xmlns:sodipodi="http://sodipodi.sourceforge.net/DTD/sodipodi-0.dtd"
   xmlns:inkscape="http://www.inkscape.org/namespaces/inkscape"
   version="1.1"
   width="54"
   height="40"
   id="svg3953"
   inkscape:version="0.48.4 r9939"
   sodipodi:docname="source-geojson.svg">
  <sodipodi:namedview
     pagecolor="#ffffff"
     bordercolor="#666666"
     borderopacity="1"
     objecttolerance="10"
     gridtolerance="10"
     guidetolerance="10"
     inkscape:pageopacity="0"
     inkscape:pageshadow="2"
     inkscape:window-width="1325"
     inkscape:window-height="710"
     id="namedview7"
     showgrid="true"
     inkscape:zoom="11.606916"
     inkscape:cx="18.415827"
     inkscape:cy="22.297326"
     inkscape:window-x="494"
     inkscape:window-y="178"
     inkscape:window-maximized="0"
     inkscape:current-layer="svg3953">
    <inkscape:grid
       type="xygrid"
       id="grid2984"
       empspacing="2"
       visible="true"
       enabled="true"
       snapvisiblegridlinesonly="true" />
  </sodipodi:namedview>
  <defs
     id="defs3955" />
  <metadata
     id="metadata3958">
    <rdf:RDF>
      <cc:Work
         rdf:about="">
        <dc:format>image/svg+xml</dc:format>
        <dc:type
           rdf:resource="http://purl.org/dc/dcmitype/StillImage" />
        <dc:title />
      </cc:Work>
    </rdf:RDF>
  </metadata>
  <path
     style="fill:#000000;stroke:none"
     d="m 24.489256,32.442567 c -0.108371,-0.06276 -0.492582,-0.155362 -0.853807,-0.205758 -1.202648,-0.167786 -2.68641,-0.78822 -4.203352,-1.757635 -2.658352,-1.698846 -4.172875,-3.693808 -5.601361,-7.378252 -0.235384,-0.607116 -0.255072,-5.976156 -0.02366,-6.448934 0.08503,-0.173707 0.180618,-0.591335 0.212417,-0.928063 0.06795,-0.719677 0.957108,-2.367188 1.304741,-2.417583 0.124773,-0.01809 0.390764,0.153791 0.591095,0.381951 0.322728,0.367559 0.431607,0.410149 0.95534,0.373708 0.325099,-0.02262 0.647248,-0.09651 0.715881,-0.164194 0.239411,-0.236102 0.837334,-0.139871 0.929192,0.149545 0.11902,0.374996 -0.0195,0.469517 -0.306894,0.209425 -0.221559,-0.200507 -0.280528,-0.200868 -0.779701,-0.0049 -0.60678,0.238347 -1.740674,0.153251 -1.740674,-0.130639 0,-0.08949 -0.06859,-0.231286 -0.152387,-0.315099 -0.239218,-0.239217 -1.109676,1.357369 -1.289054,2.364378 -0.359083,2.015821 -0.418317,2.771189 -0.352903,4.500231 0.07579,2.00322 0.07382,1.99604 1.158098,4.228736 0.845257,1.740515 1.699506,2.896356 2.955594,3.99905 1.642194,1.441657 4.272993,2.804982 5.890322,3.052472 0.216736,0.03316 0.630503,0.122865 0.919482,0.199331 0.667763,0.176701 3.230003,0.176099 4.006321,-8.77e-4 0.325102,-0.07413 0.886646,-0.17738 1.247869,-0.229425 0.361226,-0.05205 1.027977,-0.284358 1.481669,-0.516256 0.844744,-0.431772 1.211102,-0.520386 1.211102,-0.292941 0,0.274088 -1.615654,0.982537 -2.758449,1.20955 -0.905419,0.17986 -5.251148,0.276058 -5.516896,0.122128 z"
     inkscape:connector-curvature="0"
     id="path7" />
  <path
     style="fill:#000000;stroke:none"
     d="m 31.844428,30.161239 c -0.292719,-0.379287 -0.651323,-0.830517 -0.796898,-1.002735 -0.307304,-0.363551 -0.647315,-0.99047 -0.647315,-1.193541 0,-0.07727 -0.138481,-0.360977 -0.307737,-0.63046 -0.169256,-0.269482 -0.394067,-0.750638 -0.499582,-1.06923 -0.209385,-0.632238 -0.793715,-1.062675 -1.442605,-1.062675 -0.775827,0 -1.55936,-1.329781 -1.55936,-2.646475 0,-0.50254 0.296226,-1.3051 0.632599,-1.713883 0.164557,-0.199979 0.121386,-0.25176 -0.423388,-0.507831 -0.333644,-0.156834 -0.641345,-0.341327 -0.68378,-0.40999 -0.179917,-0.29111 0.135194,-0.266623 0.806625,0.06268 0.852534,0.418123 0.872271,0.5233 0.319756,1.703997 l -0.399024,0.852695 0.225478,0.811 c 0.271009,0.974765 0.85946,1.584812 1.529464,1.585591 0.667236,8.06e-4 1.226507,0.416225 1.334379,0.991233 0.05064,0.269905 0.265128,0.79739 0.476651,1.17219 0.211524,0.374798 0.38459,0.772138 0.38459,0.882975 0,0.281232 0.937787,1.636393 1.595655,2.305817 0.478507,0.486913 0.512714,0.558256 0.267665,0.558256 -0.183777,0 -0.465042,-0.238526 -0.813173,-0.689611 z"
     inkscape:connector-curvature="0"
     id="path9" />
  <path
     style="fill:#000000;stroke:none"
     d="m 33.562262,30.110689 c -0.149733,-0.190357 -0.272241,-0.48777 -0.272241,-0.660917 0,-0.173151 -0.123513,-0.681462 -0.274473,-1.129578 -0.341052,-1.0124 -0.425868,-1.85307 -0.312959,-3.101952 0.07954,-0.879765 0.130404,-1.012274 0.549481,-1.431351 0.419995,-0.419996 0.455939,-0.514115 0.39678,-1.038973 -0.06943,-0.615988 -0.394351,-1.091896 -0.74548,-1.091896 -0.118016,0 -0.41918,-0.108131 -0.669254,-0.240298 -1.121295,-0.592613 -1.71396,-0.932134 -2.071371,-1.186631 -0.652503,-0.464623 -1.019062,-0.552946 -1.498653,-0.361103 -0.71583,0.286347 -1.459374,0.125649 -2.123497,-0.458934 -0.454136,-0.399748 -0.566701,-0.453573 -0.512128,-0.244892 0.08302,0.317475 -0.293335,0.784245 -0.632334,0.784245 -0.129032,0 -0.271133,0.0591 -0.315782,0.131356 -0.153689,0.248676 -0.609938,0.130414 -1.140205,-0.295546 -1.215519,-0.976419 -1.538978,-1.311964 -1.590618,-1.650046 l -0.05394,-0.353116 -0.01968,0.352375 c -0.02555,0.457096 -0.509942,0.644153 -0.764963,0.295392 -0.167179,-0.228633 -0.174202,-0.22818 -0.174202,0.0112 0,0.137191 0.212853,0.467418 0.473002,0.733836 0.461524,0.472644 0.481737,0.479386 0.832848,0.277876 0.346372,-0.198791 0.382772,-0.190065 0.971901,0.233018 0.33663,0.241749 0.612055,0.488634 0.612055,0.54863 0,0.06 0.236437,0.109084 0.525419,0.109084 0.28898,0 0.525417,0.0591 0.525417,0.131353 0,0.174588 -1.142975,0.169724 -1.251159,-0.0053 -0.04646,-0.07516 -0.323733,-0.287715 -0.616162,-0.472319 -0.405907,-0.256235 -0.556114,-0.296123 -0.634929,-0.168598 -0.05678,0.09187 -0.234619,0.187096 -0.395195,0.211601 -0.370082,0.05647 -1.305905,-0.888787 -1.305905,-1.319079 0,-0.163762 -0.08678,-0.412489 -0.192856,-0.552726 -0.106069,-0.140237 -0.194733,-0.40439 -0.197031,-0.587009 -0.0053,-0.4224 -0.356807,-0.722907 -0.842856,-0.720601 -0.411859,0.002 -0.437569,-0.02989 -0.929805,-1.151451 -0.346863,-0.790331 -0.426979,-1.218925 -0.201836,-1.079781 0.07224,0.04464 0.131353,0.188676 0.131353,0.320055 0,0.13138 0.08867,0.312459 0.197032,0.402395 0.108361,0.08994 0.197032,0.286324 0.197032,0.436418 0,0.181704 0.04384,0.229056 0.131189,0.141705 0.08736,-0.08734 0.01397,-0.370469 -0.219594,-0.847237 -0.712593,-1.45459 -0.642446,-1.374482 -1.185392,-1.353667 -0.274721,0.01052 -0.662173,0.06177 -0.861007,0.113884 -0.281776,0.07384 -0.462861,0.01745 -0.820966,-0.255706 -0.2527,-0.192742 -0.459453,-0.427013 -0.459453,-0.520604 0,-0.350764 0.442591,-1.038725 0.800337,-1.244044 0.275157,-0.157917 0.352909,-0.283951 0.301511,-0.488742 -0.09033,-0.359894 1.134167,-1.498897 1.611396,-1.498897 0.309687,0 0.319137,0.02758 0.281345,0.820964 l -0.03911,0.820968 -0.610995,0 c -0.336046,0 -0.656223,0.04434 -0.711505,0.09851 -0.05528,0.05418 0.07485,0.09852 0.289176,0.09852 0.214327,0 0.450733,0.06105 0.525346,0.13566 0.07462,0.07461 0.226804,0.100689 0.338197,0.05793 0.247948,-0.09515 0.648292,-0.95024 0.613382,-1.310115 -0.07465,-0.769489 0.03531,-1.136977 0.491166,-1.641555 0.472972,-0.523523 0.479365,-0.525842 1.477739,-0.536167 0.551494,-0.0056 0.932148,-0.03908 0.845902,-0.07417 -0.322594,-0.131237 0.223825,-0.9663051 0.632293,-0.9663051 0.130751,0 0.297015,0.1107795 0.369479,0.2461767 0.13537,0.2529398 -0.06157,0.5286864 -0.516572,0.7233004 -0.108372,0.04634 -0.06079,0.05874 0.105729,0.02756 0.225456,-0.04223 0.332614,0.02179 0.419693,0.250843 0.08331,0.219126 0.190512,0.288321 0.372821,0.240647 0.200519,-0.05245 0.288413,0.03163 0.406194,0.388508 0.120644,0.365555 0.266341,0.49974 0.738353,0.680002 0.3555,0.135767 0.65848,0.358997 0.766144,0.56448 l 0.178093,0.339904 0.05729,-0.49081 c 0.03153,-0.269946 0.0096,-0.520264 -0.0486,-0.556265 -0.204774,-0.126557 -0.10301,-0.840981 0.156799,-1.100789 0.144491,-0.144491 0.404159,-0.262708 0.577042,-0.262708 0.316782,0 0.473795,-0.216137 0.473795,-0.6522053 0,-0.3881338 0.657942,-0.4357333 0.995051,-0.071991 0.153665,0.1658063 0.31589,0.3965833 0.360499,0.5128313 0.04462,0.116249 0.15958,0.211363 0.255488,0.211363 0.09591,0 0.55113,0.420795 1.0116,0.9351 0.95556,1.067281 0.954768,1.263577 -0.006,1.497514 -0.359327,0.08748 -0.515821,0.178415 -0.414671,0.240928 0.232486,0.143686 0.200775,0.698868 -0.04532,0.793299 -0.114275,0.04385 -0.341552,0.07972 -0.505059,0.07972 -0.163505,0 -0.407957,0.122295 -0.543225,0.271761 -0.232442,0.25685 -0.234371,0.303931 -0.03514,0.857985 0.244487,0.679888 0.147394,1.360236 -0.25768,1.805591 -0.422004,0.463979 -0.546545,0.810722 -0.467076,1.300434 0.05885,0.362654 0.01437,0.524251 -0.204554,0.743177 l -0.279756,0.279759 -0.391804,-0.289675 c -0.215493,-0.159318 -0.391804,-0.337662 -0.391804,-0.396321 0,-0.05868 -0.192107,-0.110808 -0.426903,-0.115885 -0.357748,-0.0078 -0.384347,-0.02753 -0.164194,-0.122122 0.257822,-0.110791 0.257589,-0.113063 -0.01248,-0.122122 -0.465708,-0.01561 -1.153552,1.044628 -0.864941,1.333238 0.08524,0.08524 0.157372,0.276146 0.160308,0.424248 0.0031,0.148104 0.185214,0.476162 0.405062,0.729018 l 0.399724,0.459743 0.202054,-0.29555 c 0.285233,-0.417206 0.470357,-0.374908 1.293496,0.29555 0.399138,0.325102 0.797295,0.591388 0.88479,0.591745 0.08749,3.94e-4 0.444963,-0.101826 0.794374,-0.227063 l 0.635292,-0.227718 0.678256,0.37252 c 1.697622,0.932389 2.818879,1.49732 3.262289,1.643657 0.598839,0.197635 0.888366,0.626063 0.987236,1.460878 0.07769,0.655916 -0.140671,1.226102 -0.566898,1.480325 -0.457937,0.273135 -0.577957,2.297411 -0.215859,3.640744 0.107111,0.397346 0.265893,1.013773 0.35286,1.36984 0.213835,0.87547 0.453534,1.007792 1.029618,0.568391 1.204586,-0.918785 2.799246,-2.740109 3.805965,-4.346942 0.381681,-0.6092 0.937203,-2.089592 1.17221,-3.12376 0.296942,-1.306731 0.453613,-3.243642 0.280552,-3.46849 -0.05695,-0.07399 -0.539903,-0.384309 -1.073241,-0.689609 -0.739414,-0.423268 -1.10801,-0.555097 -1.552055,-0.555097 -0.320291,0 -0.696067,-0.06086 -0.835061,-0.13525 -0.306537,-0.164052 -0.649497,-0.794923 -0.649497,-1.194737 0,-0.304336 0.570347,-2.115807 0.789243,-2.506703 0.06912,-0.123443 0.159124,-0.609446 0.199998,-1.080004 L 36.849342,11.8118 35.951985,10.910874 C 35.458435,10.415366 34.761038,9.840233 34.402209,9.632802 34.043378,9.425371 33.706366,9.193707 33.653288,9.117994 c -0.06495,-0.09265 -0.09717,-0.08816 -0.09852,0.01375 -0.001,0.0833 -0.314932,0.359127 -0.697392,0.61299 -0.552624,0.366807 -0.824534,0.461567 -1.324492,0.461567 -0.639717,0 -1.132641,-0.294186 -1.132641,-0.675975 0,-0.360856 -0.656193,-1.511321 -1.051956,-1.8443338 -0.227205,-0.1911804 -0.574073,-0.3476013 -0.770817,-0.3476013 -0.196743,0 -0.431786,-0.073893 -0.522321,-0.1641944 -0.2009,-0.200396 -2.358138,-0.1765939 -2.563013,0.028274 -0.07475,0.074753 -0.356308,0.1359127 -0.625676,0.1359127 -0.269374,0 -0.575616,0.085836 -0.680545,0.1907748 -0.104929,0.1049278 -0.218349,0.1632052 -0.25205,0.1295052 -0.03369,-0.033695 -0.0663,0.1160998 -0.07248,0.3328899 -0.01381,0.4854859 -0.114529,0.6603759 -0.380335,0.6603759 -0.148078,0 -0.182721,-0.08166 -0.125398,-0.295548 0.04357,-0.162551 0.08002,-0.461116 0.08099,-0.6634774 0.0014,-0.2949364 0.09216,-0.4056844 0.457315,-0.5582572 0.250538,-0.1046812 0.660816,-0.1903299 0.91173,-0.1903299 0.250916,0 0.492741,-0.059106 0.537392,-0.1313525 0.04507,-0.072924 0.646263,-0.1313561 1.351351,-0.1313561 1.043851,0 1.425935,0.05953 2.144366,0.3340501 0.480808,0.1837284 0.959187,0.4349427 1.063062,0.5582575 0.213343,0.2532686 0.892441,1.7572445 0.892441,1.9764615 0,0.179923 0.428657,0.415096 0.756602,0.415096 0.136652,0 0.598637,-0.264417 1.026636,-0.587591 0.427998,-0.32318 0.841002,-0.589174 0.91779,-0.591097 0.554546,-0.01389 2.271514,1.206337 3.224286,2.291483 0.421623,0.480201 0.439535,0.543506 0.416919,1.473333 -0.01669,0.686473 -0.11996,1.212366 -0.351907,1.792138 -0.180552,0.451305 -0.40256,1.098295 -0.493351,1.437759 -0.1509,0.564194 -0.141869,0.64836 0.105159,0.979999 0.224238,0.301051 0.402071,0.376682 1.044822,0.444356 0.507641,0.05346 0.99294,0.211888 1.408165,0.459742 0.348468,0.208002 0.761228,0.449612 0.917246,0.536911 0.51164,0.28628 0.554727,0.461639 0.464307,1.889645 -0.187971,2.968656 -0.666987,4.448819 -2.131784,6.587229 -0.619537,0.904441 -1.718192,2.165456 -2.203868,2.529552 -0.09638,0.07225 -0.464308,0.38257 -0.817643,0.689611 -0.742507,0.645222 -1.131864,0.699732 -1.515393,0.212157 z"
     inkscape:connector-curvature="0"
     id="path11" />
  <path
     style="fill:#000000;fill-opacity:1;stroke:none"
     d="m 31.877822,29.524557 c -0.34309,-0.440482 -0.719478,-1.075911 -0.836417,-1.412063 -0.116939,-0.336154 -0.334041,-0.818069 -0.482443,-1.070929 -0.148402,-0.25286 -0.311301,-0.744858 -0.362001,-1.093332 -0.08487,-0.583435 -0.135079,-0.652891 -0.634074,-0.877379 -0.298043,-0.134085 -0.820505,-0.314146 -1.161028,-0.400135 -0.723921,-0.182808 -0.925901,-0.440123 -1.117103,-1.423145 -0.163017,-0.838116 -0.04906,-1.354596 0.493339,-2.23612 0.346027,-0.562366 1.038057,-1.063045 1.469328,-1.063045 0.196357,0 1.908087,1.012301 2.334988,1.380887 0.18061,0.155943 0.596427,0.381944 0.924034,0.502221 0.547327,0.200952 1.046285,0.731105 1.046285,1.111702 0,0.07159 -0.265992,0.411743 -0.591097,0.755919 l -0.591095,0.625768 0,1.419079 c 0,1.094764 0.05969,1.578642 0.261221,2.117257 0.545344,1.457566 0.570839,2.464191 0.0624,2.464191 -0.105904,0 -0.473256,-0.360395 -0.816342,-0.800876 z"
     inkscape:connector-curvature="0"
     id="path13" />
  <path
     style="fill:#000000;stroke:none"
     d="m 38.738471,17.295662 c -0.431947,-0.141372 -1.033724,-0.249965 -1.337281,-0.241323 -0.487307,0.01387 -0.575736,-0.03031 -0.75529,-0.377549 -0.111852,-0.216294 -0.203366,-0.496666 -0.203366,-0.623047 0,-0.327244 0.795613,-2.433118 1.018619,-2.696141 0.173608,-0.204757 0.524803,-0.225258 0.812542,-0.04744 0.160151,0.09898 0.711902,1.270541 1.059845,2.250426 0.151461,0.426554 0.331371,0.878191 0.399802,1.00364 0.177731,0.325833 0.153646,0.849101 -0.04255,0.92439 -0.09183,0.03523 -0.520372,-0.05158 -0.952321,-0.192973 z"
     inkscape:connector-curvature="0"
     id="path15" />
  <path
     style="fill:#000000;stroke:none"
     d="m 30.998761,9.542169 c -0.112464,-0.160562 -0.206358,-0.382223 -0.208656,-0.49258 -0.0022,-0.110354 -0.09096,-0.315382 -0.197034,-0.455618 -0.557436,-0.7369988 0.04675,-1.2048343 1.03031,-0.7977892 0.30257,0.1252155 0.683122,0.2790502 0.845673,0.3418532 0.438735,0.169503 0.366083,0.60757 -0.197033,1.188059 -0.558251,0.575478 -0.972308,0.645744 -1.27326,0.216075 z"
     inkscape:connector-curvature="0"
     id="path17" />
  <path
     style="fill:#000000;fill-opacity:1;stroke:none"
     d="m 41.890426,35.942712 c -0.04404,-0.114761 -0.05938,-0.763731 -0.03407,-1.442141 l 0.04598,-1.233477 0.701584,-0.09034 c 1.180353,-0.151967 1.937555,-0.43024 2.182701,-0.802145 0.185284,-0.281093 0.25272,-1.164368 0.324661,-4.252464 0.06023,-2.585315 0.158539,-4.081414 0.291975,-4.44336 0.441672,-1.198031 0.740805,-1.673151 1.576009,-2.503208 l 0.871544,-0.86618 -0.651082,-0.443953 c -1.140344,-0.777551 -1.984592,-2.371451 -2.191759,-4.137919 -0.05532,-0.471619 -0.131654,-2.310327 -0.169652,-4.086019 L 44.769205,8.412977 44.309441,8.02611 C 44.029627,7.7906626 43.560106,7.6011569 43.109854,7.541938 42.702955,7.4884266 42.264799,7.4307744 42.136176,7.4138406 41.953533,7.3897983 41.89231,7.0963581 41.856636,6.0740588 c -0.02513,-0.7199464 0.01467,-1.3693445 0.08844,-1.4431095 0.07377,-0.073771 0.807275,-0.1409123 1.630019,-0.1492104 1.266919,-0.012761 1.605539,0.039654 2.212165,0.3426312 1.224836,0.6117077 2.127487,1.8134039 2.334428,3.1078023 0.04794,0.3001186 0.15744,2.3074556 0.243245,4.4607406 0.129889,3.259685 0.205482,4.030484 0.451555,4.604538 0.38863,0.906639 1.212745,1.61822 2.024459,1.748017 0.802113,0.128265 0.961476,0.412656 0.961476,1.715841 0,1.18171 -0.168673,1.424572 -1.098496,1.581666 -0.425269,0.07185 -0.814955,0.285611 -1.172532,0.643188 -0.94909,0.949089 -1.012616,1.269867 -1.153758,5.825754 -0.07038,2.27235 -0.207481,4.389538 -0.304643,4.704862 -0.304321,0.987685 -1.120713,2.022005 -1.961186,2.484711 -0.709975,0.390867 -0.929525,0.430086 -2.46043,0.439524 -1.267563,0.0077 -1.700588,-0.04096 -1.760968,-0.198305 z"
     inkscape:connector-curvature="0"
     id="path19" />
  <path
     style="fill:#000000;fill-opacity:1;stroke:none"
     d="m 12.288588,4.6790807 c 0.04404,0.1147618 0.05938,0.7637312 0.03407,1.4421413 l -0.04598,1.2334774 -0.701584,0.090337 C 10.394745,7.5970028 9.6375432,7.8752765 9.392397,8.247181 9.2071133,8.528274 9.1396775,9.411549 9.0677358,12.499646 c -0.060232,2.585314 -0.158539,4.081413 -0.2919745,4.443359 -0.4416726,1.198031 -0.740805,1.673151 -1.5760098,2.503208 l -0.8715478,0.866183 0.651082,0.443953 c 1.1403439,0.777551 1.9845923,2.371451 2.1917597,4.137919 0.05532,0.47162 0.1316539,2.310328 0.1696513,4.086019 l 0.069112,3.22853 0.4597642,0.386867 c 0.2798141,0.235448 0.7493351,0.424953 1.1995871,0.484172 0.406899,0.05351 0.845055,0.111164 0.973678,0.128098 0.182643,0.02404 0.243866,0.317482 0.27954,1.339781 0.02513,0.719946 -0.01467,1.369344 -0.08844,1.443109 -0.07377,0.07377 -0.807275,0.140913 -1.630019,0.149211 C 9.3369988,36.152816 8.9983792,36.100401 8.391753,35.797424 7.1669167,35.185716 6.2642662,33.98402 6.057325,32.689622 6.0093829,32.389503 5.8998856,30.382166 5.8140798,28.228881 5.684191,24.969195 5.6085986,24.198396 5.3625249,23.624342 4.9738955,22.717703 4.14978,22.006122 3.3380661,21.876325 2.5359537,21.74806 2.3765903,21.463669 2.3765903,20.160484 c 0,-1.18171 0.1686734,-1.424572 1.0984962,-1.581666 C 3.9003549,18.506968 4.2900411,18.293207 4.6476183,17.93563 5.5967079,16.986541 5.6602342,16.665763 5.8013768,12.109876 5.8717606,9.837526 6.0088577,7.7203379 6.1060192,7.405014 6.41034,6.4173295 7.226732,5.3830087 8.0672046,4.9203031 8.77718,4.5294361 8.9967303,4.4902174 10.527635,4.4807792 c 1.267563,-0.00767 1.700588,0.040959 1.760968,0.1983047 z"
     id="path3020"
     inkscape:connector-curvature="0" />
  <path
     sodipodi:type="arc"
     style="color:#000000;fill:none;stroke:#000000;stroke-width:2.70000005;stroke-miterlimit:4;stroke-opacity:1;stroke-dasharray:none;marker:none;visibility:visible;display:inline;overflow:visible;enable-background:accumulate"
     id="path3766"
     sodipodi:cx="29.5"
     sodipodi:cy="20.5"
     sodipodi:rx="14.5"
     sodipodi:ry="14.5"
     d="m 44,20.5 a 14.5,14.5 0 1 1 -0.01428,-0.643455"
     sodipodi:start="0"
     sodipodi:end="6.2387945"
     sodipodi:open="true"
     transform="matrix(0.9692512,0,0,0.9692512,-1.7734399,-0.10070244)" />
</svg>
